<mxfile host="app.diagrams.net" agent="Mozilla/5.0 (Macintosh; Intel Mac OS X 10_15_7) AppleWebKit/537.36 (KHTML, like Gecko) Chrome/141.0.0.0 Safari/537.36" version="28.2.8">
  <diagram name="Page-1" id="XN-oeTsNU7Niz_Y9Ufc0">
    <mxGraphModel dx="796" dy="1610" grid="1" gridSize="10" guides="1" tooltips="1" connect="1" arrows="1" fold="1" page="1" pageScale="1" pageWidth="850" pageHeight="1100" math="0" shadow="0">
      <root>
        <mxCell id="0" />
        <mxCell id="1" parent="0" />
        <mxCell id="sBAMjuHIIU13v0jw5Ff4-73" value="" style="rounded=1;whiteSpace=wrap;html=1;fillColor=none;strokeWidth=2;align=left;fontColor=#ffffff;strokeColor=light-dark(#2D7600, #cc0100);fontSize=20;" vertex="1" parent="1">
          <mxGeometry x="1040" y="320" width="400" height="280" as="geometry" />
        </mxCell>
        <mxCell id="sBAMjuHIIU13v0jw5Ff4-124" value="" style="rounded=1;whiteSpace=wrap;html=1;fillColor=none;strokeWidth=2;align=left;fontColor=#ffffff;strokeColor=light-dark(#2D7600, #cc0100);fontSize=20;" vertex="1" parent="1">
          <mxGeometry x="2360" y="320" width="400" height="280" as="geometry" />
        </mxCell>
        <mxCell id="sBAMjuHIIU13v0jw5Ff4-90" value="" style="rounded=1;whiteSpace=wrap;html=1;fillColor=none;strokeWidth=2;align=left;fontColor=#ffffff;strokeColor=light-dark(#2D7600, #cc0100);fontSize=20;" vertex="1" parent="1">
          <mxGeometry x="1480" y="320" width="400" height="280" as="geometry" />
        </mxCell>
        <mxCell id="sBAMjuHIIU13v0jw5Ff4-107" value="" style="rounded=1;whiteSpace=wrap;html=1;fillColor=none;strokeWidth=2;align=left;fontColor=#ffffff;strokeColor=light-dark(#2D7600, #cc0100);fontSize=20;" vertex="1" parent="1">
          <mxGeometry x="1925" y="320" width="400" height="280" as="geometry" />
        </mxCell>
        <mxCell id="sBAMjuHIIU13v0jw5Ff4-28" value="" style="rounded=1;whiteSpace=wrap;html=1;fillColor=none;strokeWidth=2;align=left;fontColor=#ffffff;strokeColor=light-dark(#2D7600, #cc0100);fontSize=20;" vertex="1" parent="1">
          <mxGeometry x="160" y="320" width="400" height="280" as="geometry" />
        </mxCell>
        <mxCell id="sBAMjuHIIU13v0jw5Ff4-26" value="" style="rounded=1;whiteSpace=wrap;html=1;fillColor=none;strokeWidth=2;align=left;fontColor=#ffffff;strokeColor=#2D7600;fontSize=20;" vertex="1" parent="1">
          <mxGeometry x="500" y="-70" width="400" height="150" as="geometry" />
        </mxCell>
        <mxCell id="sBAMjuHIIU13v0jw5Ff4-3" style="edgeStyle=orthogonalEdgeStyle;rounded=0;orthogonalLoop=1;jettySize=auto;html=1;entryX=0.5;entryY=0;entryDx=0;entryDy=0;endArrow=none;endFill=0;fontSize=20;" edge="1" parent="1" source="z8i-_g9vCmL76RbzS4UA-1" target="sBAMjuHIIU13v0jw5Ff4-2">
          <mxGeometry relative="1" as="geometry" />
        </mxCell>
        <mxCell id="sBAMjuHIIU13v0jw5Ff4-10" style="rounded=0;orthogonalLoop=1;jettySize=auto;html=1;entryX=0.5;entryY=0;entryDx=0;entryDy=0;curved=0;endArrow=none;endFill=0;exitX=0.5;exitY=1;exitDx=0;exitDy=0;fontSize=20;" edge="1" parent="1" source="z8i-_g9vCmL76RbzS4UA-1" target="sBAMjuHIIU13v0jw5Ff4-6">
          <mxGeometry relative="1" as="geometry" />
        </mxCell>
        <mxCell id="sBAMjuHIIU13v0jw5Ff4-11" style="rounded=0;orthogonalLoop=1;jettySize=auto;html=1;endArrow=none;endFill=0;exitX=0.5;exitY=1;exitDx=0;exitDy=0;fontSize=20;" edge="1" parent="1" source="z8i-_g9vCmL76RbzS4UA-1">
          <mxGeometry relative="1" as="geometry">
            <mxPoint x="480" y="500" as="targetPoint" />
          </mxGeometry>
        </mxCell>
        <mxCell id="sBAMjuHIIU13v0jw5Ff4-30" style="rounded=0;orthogonalLoop=1;jettySize=auto;html=1;endArrow=none;endFill=0;exitX=0.5;exitY=0;exitDx=0;exitDy=0;fontSize=20;entryX=0.5;entryY=1;entryDx=0;entryDy=0;" edge="1" parent="1" source="z8i-_g9vCmL76RbzS4UA-1" target="sBAMjuHIIU13v0jw5Ff4-21">
          <mxGeometry relative="1" as="geometry" />
        </mxCell>
        <mxCell id="z8i-_g9vCmL76RbzS4UA-1" value="T&lt;sub&gt;1,1&lt;/sub&gt;" style="ellipse;whiteSpace=wrap;html=1;aspect=fixed;fillColor=light-dark(#FFFFFF,#CC0000);fontColor=#ffffff;strokeColor=#B20000;fontSize=20;" parent="1" vertex="1">
          <mxGeometry x="190" y="350" width="80" height="80" as="geometry" />
        </mxCell>
        <mxCell id="sBAMjuHIIU13v0jw5Ff4-253" style="rounded=0;orthogonalLoop=1;jettySize=auto;html=1;entryX=0.5;entryY=0;entryDx=0;entryDy=0;endArrow=none;endFill=0;" edge="1" parent="1" source="sBAMjuHIIU13v0jw5Ff4-2" target="sBAMjuHIIU13v0jw5Ff4-33">
          <mxGeometry relative="1" as="geometry" />
        </mxCell>
        <mxCell id="sBAMjuHIIU13v0jw5Ff4-256" style="rounded=0;orthogonalLoop=1;jettySize=auto;html=1;entryX=0.5;entryY=0;entryDx=0;entryDy=0;endArrow=none;endFill=0;exitX=0.5;exitY=1;exitDx=0;exitDy=0;" edge="1" parent="1" source="sBAMjuHIIU13v0jw5Ff4-2" target="sBAMjuHIIU13v0jw5Ff4-34">
          <mxGeometry relative="1" as="geometry" />
        </mxCell>
        <mxCell id="sBAMjuHIIU13v0jw5Ff4-257" style="rounded=0;orthogonalLoop=1;jettySize=auto;html=1;entryX=0.5;entryY=0;entryDx=0;entryDy=0;endArrow=none;endFill=0;exitX=0.5;exitY=1;exitDx=0;exitDy=0;" edge="1" parent="1" source="sBAMjuHIIU13v0jw5Ff4-2" target="sBAMjuHIIU13v0jw5Ff4-35">
          <mxGeometry relative="1" as="geometry" />
        </mxCell>
        <mxCell id="sBAMjuHIIU13v0jw5Ff4-2" value="B&lt;span style=&quot;font-size: 16.6667px;&quot;&gt;&lt;sub&gt;1,1&lt;/sub&gt;&lt;/span&gt;" style="ellipse;whiteSpace=wrap;html=1;aspect=fixed;fillColor=light-dark(#FFFFFF,#CC0000);fontColor=#ffffff;strokeColor=#B20000;fontSize=20;" vertex="1" parent="1">
          <mxGeometry x="190" y="500" width="80" height="80" as="geometry" />
        </mxCell>
        <mxCell id="sBAMjuHIIU13v0jw5Ff4-4" style="edgeStyle=orthogonalEdgeStyle;rounded=0;orthogonalLoop=1;jettySize=auto;html=1;entryX=0.5;entryY=0;entryDx=0;entryDy=0;endArrow=none;endFill=0;fontSize=20;" edge="1" parent="1" source="sBAMjuHIIU13v0jw5Ff4-5" target="sBAMjuHIIU13v0jw5Ff4-6">
          <mxGeometry relative="1" as="geometry" />
        </mxCell>
        <mxCell id="sBAMjuHIIU13v0jw5Ff4-12" style="rounded=0;orthogonalLoop=1;jettySize=auto;html=1;entryX=0.5;entryY=0;entryDx=0;entryDy=0;endArrow=none;endFill=0;exitX=0.5;exitY=1;exitDx=0;exitDy=0;fontSize=20;" edge="1" parent="1" source="sBAMjuHIIU13v0jw5Ff4-5" target="sBAMjuHIIU13v0jw5Ff4-2">
          <mxGeometry relative="1" as="geometry" />
        </mxCell>
        <mxCell id="sBAMjuHIIU13v0jw5Ff4-16" style="rounded=0;orthogonalLoop=1;jettySize=auto;html=1;entryX=0.5;entryY=0;entryDx=0;entryDy=0;endArrow=none;endFill=0;exitX=0.5;exitY=1;exitDx=0;exitDy=0;fontSize=20;" edge="1" parent="1" source="sBAMjuHIIU13v0jw5Ff4-5" target="sBAMjuHIIU13v0jw5Ff4-9">
          <mxGeometry relative="1" as="geometry" />
        </mxCell>
        <mxCell id="sBAMjuHIIU13v0jw5Ff4-5" value="T&lt;sub&gt;1,2&lt;/sub&gt;" style="ellipse;whiteSpace=wrap;html=1;aspect=fixed;fillColor=light-dark(#FFFFFF,#CC0000);fontColor=#ffffff;strokeColor=#B20000;fontSize=20;" vertex="1" parent="1">
          <mxGeometry x="315" y="350" width="80" height="80" as="geometry" />
        </mxCell>
        <mxCell id="sBAMjuHIIU13v0jw5Ff4-258" style="rounded=0;orthogonalLoop=1;jettySize=auto;html=1;entryX=0.5;entryY=0;entryDx=0;entryDy=0;endArrow=none;endFill=0;exitX=0.5;exitY=1;exitDx=0;exitDy=0;" edge="1" parent="1" source="sBAMjuHIIU13v0jw5Ff4-6" target="sBAMjuHIIU13v0jw5Ff4-33">
          <mxGeometry relative="1" as="geometry" />
        </mxCell>
        <mxCell id="sBAMjuHIIU13v0jw5Ff4-259" style="rounded=0;orthogonalLoop=1;jettySize=auto;html=1;entryX=0.5;entryY=0;entryDx=0;entryDy=0;endArrow=none;endFill=0;exitX=0.5;exitY=1;exitDx=0;exitDy=0;" edge="1" parent="1" source="sBAMjuHIIU13v0jw5Ff4-6" target="sBAMjuHIIU13v0jw5Ff4-34">
          <mxGeometry relative="1" as="geometry" />
        </mxCell>
        <mxCell id="sBAMjuHIIU13v0jw5Ff4-260" style="rounded=0;orthogonalLoop=1;jettySize=auto;html=1;entryX=0.5;entryY=0;entryDx=0;entryDy=0;endArrow=none;endFill=0;exitX=0.5;exitY=1;exitDx=0;exitDy=0;" edge="1" parent="1" source="sBAMjuHIIU13v0jw5Ff4-6" target="sBAMjuHIIU13v0jw5Ff4-35">
          <mxGeometry relative="1" as="geometry" />
        </mxCell>
        <mxCell id="sBAMjuHIIU13v0jw5Ff4-6" value="B&lt;span style=&quot;font-size: 16.6667px;&quot;&gt;&lt;sub&gt;1,2&lt;/sub&gt;&lt;/span&gt;" style="ellipse;whiteSpace=wrap;html=1;aspect=fixed;fillColor=light-dark(#FFFFFF,#CC0000);fontColor=#ffffff;strokeColor=#B20000;fontSize=20;" vertex="1" parent="1">
          <mxGeometry x="315" y="500" width="80" height="80" as="geometry" />
        </mxCell>
        <mxCell id="sBAMjuHIIU13v0jw5Ff4-14" style="rounded=0;orthogonalLoop=1;jettySize=auto;html=1;entryX=0.5;entryY=0;entryDx=0;entryDy=0;endArrow=none;endFill=0;fontSize=20;" edge="1" parent="1" target="sBAMjuHIIU13v0jw5Ff4-6">
          <mxGeometry relative="1" as="geometry">
            <mxPoint x="480" y="430" as="sourcePoint" />
          </mxGeometry>
        </mxCell>
        <mxCell id="sBAMjuHIIU13v0jw5Ff4-15" style="rounded=0;orthogonalLoop=1;jettySize=auto;html=1;entryX=0.5;entryY=0;entryDx=0;entryDy=0;endArrow=none;endFill=0;exitX=0.5;exitY=1;exitDx=0;exitDy=0;fontSize=20;" edge="1" parent="1" source="sBAMjuHIIU13v0jw5Ff4-8" target="sBAMjuHIIU13v0jw5Ff4-2">
          <mxGeometry relative="1" as="geometry" />
        </mxCell>
        <mxCell id="sBAMjuHIIU13v0jw5Ff4-17" style="rounded=0;orthogonalLoop=1;jettySize=auto;html=1;endArrow=none;endFill=0;fontSize=20;" edge="1" parent="1" source="sBAMjuHIIU13v0jw5Ff4-8">
          <mxGeometry relative="1" as="geometry">
            <mxPoint x="480" y="500" as="targetPoint" />
          </mxGeometry>
        </mxCell>
        <mxCell id="sBAMjuHIIU13v0jw5Ff4-8" value="T&lt;sub&gt;1,3&lt;/sub&gt;&lt;span style=&quot;color: rgba(0, 0, 0, 0); font-family: monospace; font-size: 0px; text-align: start; text-wrap-mode: nowrap;&quot;&gt;%3CmxGraphModel%3E%3Croot%3E%3CmxCell%20id%3D%220%22%2F%3E%3CmxCell%20id%3D%221%22%20parent%3D%220%22%2F%3E%3CmxCell%20id%3D%222%22%20value%3D%22%26lt%3Bspan%26gt%3BH%26lt%3B%2Fspan%26gt%3B%26lt%3Bsub%26gt%3B1%2C1%26lt%3B%2Fsub%26gt%3B%22%20style%3D%22ellipse%3BwhiteSpace%3Dwrap%3Bhtml%3D1%3Baspect%3Dfixed%3BfillColor%3Dlight-dark(%2360A917%2C%233333FF)%3BfontColor%3D%23ffffff%3BstrokeColor%3D%232D7600%3BfontSize%3D20%3B%22%20vertex%3D%221%22%20parent%3D%221%22%3E%3CmxGeometry%20x%3D%22190%22%20y%3D%22780%22%20width%3D%2280%22%20height%3D%2280%22%20as%3D%22geometry%22%2F%3E%3C%2FmxCell%3E%3CmxCell%20id%3D%223%22%20value%3D%22H%26lt%3Bsub%26gt%3B2%2C1%26lt%3B%2Fsub%26gt%3B%22%20style%3D%22ellipse%3BwhiteSpace%3Dwrap%3Bhtml%3D1%3Baspect%3Dfixed%3BfillColor%3Dlight-dark(%2360A917%2C%233333FF)%3BfontColor%3D%23ffffff%3BstrokeColor%3D%232D7600%3BfontSize%3D20%3B%22%20vertex%3D%221%22%20parent%3D%221%22%3E%3CmxGeometry%20x%3D%22330%22%20y%3D%22780%22%20width%3D%2280%22%20height%3D%2280%22%20as%3D%22geometry%22%2F%3E%3C%2FmxCell%3E%3CmxCell%20id%3D%224%22%20value%3D%22H%26lt%3Bsub%26gt%3B3%2C1%26lt%3B%2Fsub%26gt%3B%22%20style%3D%22ellipse%3BwhiteSpace%3Dwrap%3Bhtml%3D1%3Baspect%3Dfixed%3BfillColor%3Dlight-dark(%2360A917%2C%233333FF)%3BfontColor%3D%23ffffff%3BstrokeColor%3D%232D7600%3BfontSize%3D20%3B%22%20vertex%3D%221%22%20parent%3D%221%22%3E%3CmxGeometry%20x%3D%22470%22%20y%3D%22780%22%20width%3D%2280%22%20height%3D%2280%22%20as%3D%22geometry%22%2F%3E%3C%2FmxCell%3E%3CmxCell%20id%3D%225%22%20value%3D%22%26lt%3Bspan%26gt%3BH%26lt%3Bsub%26gt%3B4%26lt%3B%2Fsub%26gt%3B%26lt%3B%2Fspan%26gt%3B%26lt%3Bsub%26gt%3B%2C1%26lt%3B%2Fsub%26gt%3B%22%20style%3D%22ellipse%3BwhiteSpace%3Dwrap%3Bhtml%3D1%3Baspect%3Dfixed%3BfillColor%3Dlight-dark(%2360A917%2C%233333FF)%3BfontColor%3D%23ffffff%3BstrokeColor%3D%232D7600%3BfontSize%3D20%3B%22%20vertex%3D%221%22%20parent%3D%221%22%3E%3CmxGeometry%20x%3D%22610%22%20y%3D%22780%22%20width%3D%2280%22%20height%3D%2280%22%20as%3D%22geometry%22%2F%3E%3C%2FmxCell%3E%3CmxCell%20id%3D%226%22%20value%3D%22H%26lt%3Bsub%26gt%3B5%2C1%26lt%3B%2Fsub%26gt%3B%22%20style%3D%22ellipse%3BwhiteSpace%3Dwrap%3Bhtml%3D1%3Baspect%3Dfixed%3BfillColor%3Dlight-dark(%2360A917%2C%233333FF)%3BfontColor%3D%23ffffff%3BstrokeColor%3D%232D7600%3BfontSize%3D20%3B%22%20vertex%3D%221%22%20parent%3D%221%22%3E%3CmxGeometry%20x%3D%22760%22%20y%3D%22780%22%20width%3D%2280%22%20height%3D%2280%22%20as%3D%22geometry%22%2F%3E%3C%2FmxCell%3E%3CmxCell%20id%3D%227%22%20value%3D%22H%26lt%3Bsub%26gt%3B6%2C1%26lt%3B%2Fsub%26gt%3B%22%20style%3D%22ellipse%3BwhiteSpace%3Dwrap%3Bhtml%3D1%3Baspect%3Dfixed%3BfillColor%3Dlight-dark(%2360A917%2C%233333FF)%3BfontColor%3D%23ffffff%3BstrokeColor%3D%232D7600%3BfontSize%3D20%3B%22%20vertex%3D%221%22%20parent%3D%221%22%3E%3CmxGeometry%20x%3D%22910%22%20y%3D%22780%22%20width%3D%2280%22%20height%3D%2280%22%20as%3D%22geometry%22%2F%3E%3C%2FmxCell%3E%3C%2Froot%3E%3C%2FmxGraphModel%3E&lt;/span&gt;&lt;span style=&quot;color: rgba(0, 0, 0, 0); font-family: monospace; font-size: 0px; text-align: start; text-wrap-mode: nowrap;&quot;&gt;%3CmxGraphModel%3E%3Croot%3E%3CmxCell%20id%3D%220%22%2F%3E%3CmxCell%20id%3D%221%22%20parent%3D%220%22%2F%3E%3CmxCell%20id%3D%222%22%20value%3D%22%26lt%3Bspan%26gt%3BH%26lt%3B%2Fspan%26gt%3B%26lt%3Bsub%26gt%3B1%2C1%26lt%3B%2Fsub%26gt%3B%22%20style%3D%22ellipse%3BwhiteSpace%3Dwrap%3Bhtml%3D1%3Baspect%3Dfixed%3BfillColor%3Dlight-dark(%2360A917%2C%233333FF)%3BfontColor%3D%23ffffff%3BstrokeColor%3D%232D7600%3BfontSize%3D20%3B%22%20vertex%3D%221%22%20parent%3D%221%22%3E%3CmxGeometry%20x%3D%22190%22%20y%3D%22780%22%20width%3D%2280%22%20height%3D%2280%22%20as%3D%22geometry%22%2F%3E%3C%2FmxCell%3E%3CmxCell%20id%3D%223%22%20value%3D%22H%26lt%3Bsub%26gt%3B2%2C1%26lt%3B%2Fsub%26gt%3B%22%20style%3D%22ellipse%3BwhiteSpace%3Dwrap%3Bhtml%3D1%3Baspect%3Dfixed%3BfillColor%3Dlight-dark(%2360A917%2C%233333FF)%3BfontColor%3D%23ffffff%3BstrokeColor%3D%232D7600%3BfontSize%3D20%3B%22%20vertex%3D%221%22%20parent%3D%221%22%3E%3CmxGeometry%20x%3D%22330%22%20y%3D%22780%22%20width%3D%2280%22%20height%3D%2280%22%20as%3D%22geometry%22%2F%3E%3C%2FmxCell%3E%3CmxCell%20id%3D%224%22%20value%3D%22H%26lt%3Bsub%26gt%3B3%2C1%26lt%3B%2Fsub%26gt%3B%22%20style%3D%22ellipse%3BwhiteSpace%3Dwrap%3Bhtml%3D1%3Baspect%3Dfixed%3BfillColor%3Dlight-dark(%2360A917%2C%233333FF)%3BfontColor%3D%23ffffff%3BstrokeColor%3D%232D7600%3BfontSize%3D20%3B%22%20vertex%3D%221%22%20parent%3D%221%22%3E%3CmxGeometry%20x%3D%22470%22%20y%3D%22780%22%20width%3D%2280%22%20height%3D%2280%22%20as%3D%22geometry%22%2F%3E%3C%2FmxCell%3E%3CmxCell%20id%3D%225%22%20value%3D%22%26lt%3Bspan%26gt%3BH%26lt%3Bsub%26gt%3B4%26lt%3B%2Fsub%26gt%3B%26lt%3B%2Fspan%26gt%3B%26lt%3Bsub%26gt%3B%2C1%26lt%3B%2Fsub%26gt%3B%22%20style%3D%22ellipse%3BwhiteSpace%3Dwrap%3Bhtml%3D1%3Baspect%3Dfixed%3BfillColor%3Dlight-dark(%2360A917%2C%233333FF)%3BfontColor%3D%23ffffff%3BstrokeColor%3D%232D7600%3BfontSize%3D20%3B%22%20vertex%3D%221%22%20parent%3D%221%22%3E%3CmxGeometry%20x%3D%22610%22%20y%3D%22780%22%20width%3D%2280%22%20height%3D%2280%22%20as%3D%22geometry%22%2F%3E%3C%2FmxCell%3E%3CmxCell%20id%3D%226%22%20value%3D%22H%26lt%3Bsub%26gt%3B5%2C1%26lt%3B%2Fsub%26gt%3B%22%20style%3D%22ellipse%3BwhiteSpace%3Dwrap%3Bhtml%3D1%3Baspect%3Dfixed%3BfillColor%3Dlight-dark(%2360A917%2C%233333FF)%3BfontColor%3D%23ffffff%3BstrokeColor%3D%232D7600%3BfontSize%3D20%3B%22%20vertex%3D%221%22%20parent%3D%221%22%3E%3CmxGeometry%20x%3D%22760%22%20y%3D%22780%22%20width%3D%2280%22%20height%3D%2280%22%20as%3D%22geometry%22%2F%3E%3C%2FmxCell%3E%3CmxCell%20id%3D%227%22%20value%3D%22H%26lt%3Bsub%26gt%3B6%2C1%26lt%3B%2Fsub%26gt%3B%22%20style%3D%22ellipse%3BwhiteSpace%3Dwrap%3Bhtml%3D1%3Baspect%3Dfixed%3BfillColor%3Dlight-dark(%2360A917%2C%233333FF)%3BfontColor%3D%23ffffff%3BstrokeColor%3D%232D7600%3BfontSize%3D20%3B%22%20vertex%3D%221%22%20parent%3D%221%22%3E%3CmxGeometry%20x%3D%22910%22%20y%3D%22780%22%20width%3D%2280%22%20height%3D%2280%22%20as%3D%22geometry%22%2F%3E%3C%2FmxCell%3E%3C%2Froot%3E%3C%2FmxGraphModel%3E&lt;/span&gt;" style="ellipse;whiteSpace=wrap;html=1;aspect=fixed;fillColor=light-dark(#FFFFFF,#CC0000);fontColor=#ffffff;strokeColor=#B20000;fontSize=20;" vertex="1" parent="1">
          <mxGeometry x="440" y="350" width="80" height="80" as="geometry" />
        </mxCell>
        <mxCell id="sBAMjuHIIU13v0jw5Ff4-261" style="rounded=0;orthogonalLoop=1;jettySize=auto;html=1;entryX=0.5;entryY=0;entryDx=0;entryDy=0;endArrow=none;endFill=0;exitX=0.5;exitY=1;exitDx=0;exitDy=0;" edge="1" parent="1" source="sBAMjuHIIU13v0jw5Ff4-9" target="sBAMjuHIIU13v0jw5Ff4-33">
          <mxGeometry relative="1" as="geometry" />
        </mxCell>
        <mxCell id="sBAMjuHIIU13v0jw5Ff4-262" style="rounded=0;orthogonalLoop=1;jettySize=auto;html=1;entryX=0.5;entryY=0;entryDx=0;entryDy=0;endArrow=none;endFill=0;exitX=0.5;exitY=1;exitDx=0;exitDy=0;" edge="1" parent="1" source="sBAMjuHIIU13v0jw5Ff4-9" target="sBAMjuHIIU13v0jw5Ff4-34">
          <mxGeometry relative="1" as="geometry" />
        </mxCell>
        <mxCell id="sBAMjuHIIU13v0jw5Ff4-263" style="rounded=0;orthogonalLoop=1;jettySize=auto;html=1;entryX=0.5;entryY=0;entryDx=0;entryDy=0;endArrow=none;endFill=0;exitX=0.5;exitY=1;exitDx=0;exitDy=0;" edge="1" parent="1" source="sBAMjuHIIU13v0jw5Ff4-9" target="sBAMjuHIIU13v0jw5Ff4-35">
          <mxGeometry relative="1" as="geometry" />
        </mxCell>
        <mxCell id="sBAMjuHIIU13v0jw5Ff4-9" value="B&lt;span style=&quot;font-size: 16.6667px;&quot;&gt;&lt;sub&gt;1,3&lt;/sub&gt;&lt;/span&gt;" style="ellipse;whiteSpace=wrap;html=1;aspect=fixed;fillColor=light-dark(#FFFFFF,#CC0000);fontColor=#ffffff;strokeColor=#B20000;fontSize=20;" vertex="1" parent="1">
          <mxGeometry x="440" y="500" width="80" height="80" as="geometry" />
        </mxCell>
        <mxCell id="sBAMjuHIIU13v0jw5Ff4-151" style="rounded=0;orthogonalLoop=1;jettySize=auto;html=1;entryX=0.5;entryY=0;entryDx=0;entryDy=0;endArrow=none;endFill=0;exitX=0.5;exitY=1;exitDx=0;exitDy=0;" edge="1" parent="1" source="sBAMjuHIIU13v0jw5Ff4-21" target="sBAMjuHIIU13v0jw5Ff4-60">
          <mxGeometry relative="1" as="geometry" />
        </mxCell>
        <mxCell id="sBAMjuHIIU13v0jw5Ff4-152" style="rounded=0;orthogonalLoop=1;jettySize=auto;html=1;endArrow=none;endFill=0;exitX=0.5;exitY=1;exitDx=0;exitDy=0;entryX=0.467;entryY=-0.001;entryDx=0;entryDy=0;entryPerimeter=0;" edge="1" parent="1" source="sBAMjuHIIU13v0jw5Ff4-21" target="sBAMjuHIIU13v0jw5Ff4-77">
          <mxGeometry relative="1" as="geometry" />
        </mxCell>
        <mxCell id="sBAMjuHIIU13v0jw5Ff4-153" value="" style="rounded=0;orthogonalLoop=1;jettySize=auto;html=1;entryX=0.5;entryY=0;entryDx=0;entryDy=0;exitX=0.5;exitY=1;exitDx=0;exitDy=0;endArrow=none;endFill=0;" edge="1" parent="1" source="sBAMjuHIIU13v0jw5Ff4-21" target="sBAMjuHIIU13v0jw5Ff4-94">
          <mxGeometry relative="1" as="geometry" />
        </mxCell>
        <mxCell id="sBAMjuHIIU13v0jw5Ff4-154" value="x" style="rounded=0;orthogonalLoop=1;jettySize=auto;html=1;entryX=0.5;entryY=0;entryDx=0;entryDy=0;exitX=0.5;exitY=1;exitDx=0;exitDy=0;endArrow=none;endFill=0;" edge="1" parent="1" source="sBAMjuHIIU13v0jw5Ff4-21" target="sBAMjuHIIU13v0jw5Ff4-111">
          <mxGeometry relative="1" as="geometry" />
        </mxCell>
        <mxCell id="sBAMjuHIIU13v0jw5Ff4-162" style="rounded=0;orthogonalLoop=1;jettySize=auto;html=1;entryX=0.5;entryY=0;entryDx=0;entryDy=0;endArrow=none;endFill=0;exitX=0.5;exitY=1;exitDx=0;exitDy=0;" edge="1" parent="1" source="sBAMjuHIIU13v0jw5Ff4-21" target="sBAMjuHIIU13v0jw5Ff4-128">
          <mxGeometry relative="1" as="geometry" />
        </mxCell>
        <mxCell id="sBAMjuHIIU13v0jw5Ff4-21" value="A&lt;sub&gt;1,1&lt;/sub&gt;" style="ellipse;whiteSpace=wrap;html=1;aspect=fixed;fillColor=#60a917;fontColor=#ffffff;strokeColor=#2D7600;fontSize=20;" vertex="1" parent="1">
          <mxGeometry x="525" y="-40" width="80" height="80" as="geometry" />
        </mxCell>
        <mxCell id="sBAMjuHIIU13v0jw5Ff4-163" style="rounded=0;orthogonalLoop=1;jettySize=auto;html=1;entryX=0.5;entryY=0;entryDx=0;entryDy=0;endArrow=none;endFill=0;exitX=0.5;exitY=1;exitDx=0;exitDy=0;" edge="1" parent="1" source="sBAMjuHIIU13v0jw5Ff4-22" target="sBAMjuHIIU13v0jw5Ff4-5">
          <mxGeometry relative="1" as="geometry" />
        </mxCell>
        <mxCell id="sBAMjuHIIU13v0jw5Ff4-164" style="rounded=0;orthogonalLoop=1;jettySize=auto;html=1;entryX=0.5;entryY=0;entryDx=0;entryDy=0;endArrow=none;endFill=0;exitX=0.5;exitY=1;exitDx=0;exitDy=0;" edge="1" parent="1" source="sBAMjuHIIU13v0jw5Ff4-22" target="sBAMjuHIIU13v0jw5Ff4-65">
          <mxGeometry relative="1" as="geometry" />
        </mxCell>
        <mxCell id="sBAMjuHIIU13v0jw5Ff4-165" style="rounded=0;orthogonalLoop=1;jettySize=auto;html=1;entryX=0.5;entryY=0;entryDx=0;entryDy=0;endArrow=none;endFill=0;exitX=0.5;exitY=1;exitDx=0;exitDy=0;" edge="1" parent="1" source="sBAMjuHIIU13v0jw5Ff4-22" target="sBAMjuHIIU13v0jw5Ff4-82">
          <mxGeometry relative="1" as="geometry" />
        </mxCell>
        <mxCell id="sBAMjuHIIU13v0jw5Ff4-166" style="rounded=0;orthogonalLoop=1;jettySize=auto;html=1;endArrow=none;endFill=0;entryX=0.5;entryY=0;entryDx=0;entryDy=0;" edge="1" parent="1" target="sBAMjuHIIU13v0jw5Ff4-99">
          <mxGeometry relative="1" as="geometry">
            <mxPoint x="690" y="40" as="sourcePoint" />
          </mxGeometry>
        </mxCell>
        <mxCell id="sBAMjuHIIU13v0jw5Ff4-167" style="rounded=0;orthogonalLoop=1;jettySize=auto;html=1;endArrow=none;endFill=0;entryX=0.5;entryY=0;entryDx=0;entryDy=0;" edge="1" parent="1" target="sBAMjuHIIU13v0jw5Ff4-116">
          <mxGeometry relative="1" as="geometry">
            <mxPoint x="690" y="40" as="sourcePoint" />
          </mxGeometry>
        </mxCell>
        <mxCell id="sBAMjuHIIU13v0jw5Ff4-168" style="rounded=0;orthogonalLoop=1;jettySize=auto;html=1;entryX=0.5;entryY=0;entryDx=0;entryDy=0;endArrow=none;endFill=0;exitX=0.5;exitY=1;exitDx=0;exitDy=0;" edge="1" parent="1" source="sBAMjuHIIU13v0jw5Ff4-22" target="sBAMjuHIIU13v0jw5Ff4-133">
          <mxGeometry relative="1" as="geometry" />
        </mxCell>
        <mxCell id="sBAMjuHIIU13v0jw5Ff4-22" value="A&lt;sub&gt;1,2&lt;/sub&gt;" style="ellipse;whiteSpace=wrap;html=1;aspect=fixed;fillColor=#60a917;fontColor=#ffffff;strokeColor=#2D7600;fontSize=20;" vertex="1" parent="1">
          <mxGeometry x="650" y="-40" width="80" height="80" as="geometry" />
        </mxCell>
        <mxCell id="sBAMjuHIIU13v0jw5Ff4-186" style="rounded=0;orthogonalLoop=1;jettySize=auto;html=1;endArrow=none;endFill=0;exitX=0.5;exitY=1;exitDx=0;exitDy=0;entryX=0.5;entryY=0;entryDx=0;entryDy=0;" edge="1" parent="1" source="sBAMjuHIIU13v0jw5Ff4-23" target="sBAMjuHIIU13v0jw5Ff4-8">
          <mxGeometry relative="1" as="geometry" />
        </mxCell>
        <mxCell id="sBAMjuHIIU13v0jw5Ff4-187" style="rounded=0;orthogonalLoop=1;jettySize=auto;html=1;endArrow=none;endFill=0;exitX=0.5;exitY=1;exitDx=0;exitDy=0;entryX=0.5;entryY=0;entryDx=0;entryDy=0;" edge="1" parent="1" source="sBAMjuHIIU13v0jw5Ff4-23" target="sBAMjuHIIU13v0jw5Ff4-70">
          <mxGeometry relative="1" as="geometry" />
        </mxCell>
        <mxCell id="sBAMjuHIIU13v0jw5Ff4-188" style="rounded=0;orthogonalLoop=1;jettySize=auto;html=1;endArrow=none;endFill=0;exitX=0.5;exitY=1;exitDx=0;exitDy=0;entryX=0.5;entryY=0;entryDx=0;entryDy=0;" edge="1" parent="1" source="sBAMjuHIIU13v0jw5Ff4-23" target="sBAMjuHIIU13v0jw5Ff4-87">
          <mxGeometry relative="1" as="geometry" />
        </mxCell>
        <mxCell id="sBAMjuHIIU13v0jw5Ff4-189" style="rounded=0;orthogonalLoop=1;jettySize=auto;html=1;entryX=0.5;entryY=0;entryDx=0;entryDy=0;endArrow=none;endFill=0;exitX=0.5;exitY=1;exitDx=0;exitDy=0;" edge="1" parent="1" source="sBAMjuHIIU13v0jw5Ff4-23" target="sBAMjuHIIU13v0jw5Ff4-104">
          <mxGeometry relative="1" as="geometry" />
        </mxCell>
        <mxCell id="sBAMjuHIIU13v0jw5Ff4-190" style="rounded=0;orthogonalLoop=1;jettySize=auto;html=1;entryX=0.5;entryY=0;entryDx=0;entryDy=0;endArrow=none;endFill=0;" edge="1" parent="1" target="sBAMjuHIIU13v0jw5Ff4-121">
          <mxGeometry relative="1" as="geometry">
            <mxPoint x="815" y="40" as="sourcePoint" />
          </mxGeometry>
        </mxCell>
        <mxCell id="sBAMjuHIIU13v0jw5Ff4-191" style="rounded=0;orthogonalLoop=1;jettySize=auto;html=1;endArrow=none;endFill=0;entryX=0.5;entryY=0;entryDx=0;entryDy=0;exitX=0.5;exitY=1;exitDx=0;exitDy=0;" edge="1" parent="1" source="sBAMjuHIIU13v0jw5Ff4-23" target="sBAMjuHIIU13v0jw5Ff4-138">
          <mxGeometry relative="1" as="geometry" />
        </mxCell>
        <mxCell id="sBAMjuHIIU13v0jw5Ff4-23" value="A&lt;sub&gt;1,3&lt;/sub&gt;" style="ellipse;whiteSpace=wrap;html=1;aspect=fixed;fillColor=#60a917;fontColor=#ffffff;strokeColor=#2D7600;fontSize=20;" vertex="1" parent="1">
          <mxGeometry x="775" y="-40" width="80" height="80" as="geometry" />
        </mxCell>
        <mxCell id="sBAMjuHIIU13v0jw5Ff4-27" value="A&lt;sub&gt;1&lt;/sub&gt;" style="text;html=1;whiteSpace=wrap;strokeColor=none;fillColor=none;align=center;verticalAlign=middle;rounded=0;fontSize=20;" vertex="1" parent="1">
          <mxGeometry x="490" y="-60" width="60" height="30" as="geometry" />
        </mxCell>
        <mxCell id="sBAMjuHIIU13v0jw5Ff4-31" value="&lt;span&gt;P&lt;sub&gt;1&lt;/sub&gt;&lt;/span&gt;" style="text;html=1;whiteSpace=wrap;strokeColor=none;fillColor=none;align=center;verticalAlign=middle;rounded=0;fontSize=20;" vertex="1" parent="1">
          <mxGeometry x="160" y="330" width="60" height="30" as="geometry" />
        </mxCell>
        <mxCell id="sBAMjuHIIU13v0jw5Ff4-33" value="&lt;span&gt;H&lt;/span&gt;&lt;sub&gt;1,1&lt;/sub&gt;" style="ellipse;whiteSpace=wrap;html=1;aspect=fixed;fillColor=light-dark(#60A917,#3333FF);fontColor=#ffffff;strokeColor=#2D7600;fontSize=20;" vertex="1" parent="1">
          <mxGeometry x="190" y="780" width="80" height="80" as="geometry" />
        </mxCell>
        <mxCell id="sBAMjuHIIU13v0jw5Ff4-34" value="H&lt;sub&gt;1,2&lt;/sub&gt;" style="ellipse;whiteSpace=wrap;html=1;aspect=fixed;fillColor=light-dark(#60A917,#3333FF);fontColor=#ffffff;strokeColor=#2D7600;fontSize=20;" vertex="1" parent="1">
          <mxGeometry x="330" y="780" width="80" height="80" as="geometry" />
        </mxCell>
        <mxCell id="sBAMjuHIIU13v0jw5Ff4-35" value="H&lt;sub&gt;1,3&lt;/sub&gt;" style="ellipse;whiteSpace=wrap;html=1;aspect=fixed;fillColor=light-dark(#60A917,#3333FF);fontColor=#ffffff;strokeColor=#2D7600;fontSize=20;" vertex="1" parent="1">
          <mxGeometry x="470" y="780" width="80" height="80" as="geometry" />
        </mxCell>
        <mxCell id="sBAMjuHIIU13v0jw5Ff4-37" value="&lt;span&gt;H&lt;/span&gt;&lt;sub&gt;2,1&lt;/sub&gt;" style="ellipse;whiteSpace=wrap;html=1;aspect=fixed;fillColor=light-dark(#60A917,#3333FF);fontColor=#ffffff;strokeColor=#2D7600;fontSize=20;" vertex="1" parent="1">
          <mxGeometry x="610" y="780" width="80" height="80" as="geometry" />
        </mxCell>
        <mxCell id="sBAMjuHIIU13v0jw5Ff4-38" value="H&lt;sub&gt;2,2&lt;/sub&gt;" style="ellipse;whiteSpace=wrap;html=1;aspect=fixed;fillColor=light-dark(#60A917,#3333FF);fontColor=#ffffff;strokeColor=#2D7600;fontSize=20;" vertex="1" parent="1">
          <mxGeometry x="760" y="780" width="80" height="80" as="geometry" />
        </mxCell>
        <mxCell id="sBAMjuHIIU13v0jw5Ff4-39" value="H&lt;sub&gt;2,3&lt;/sub&gt;" style="ellipse;whiteSpace=wrap;html=1;aspect=fixed;fillColor=light-dark(#60A917,#3333FF);fontColor=#ffffff;strokeColor=#2D7600;fontSize=20;" vertex="1" parent="1">
          <mxGeometry x="910" y="780" width="80" height="80" as="geometry" />
        </mxCell>
        <mxCell id="sBAMjuHIIU13v0jw5Ff4-56" value="" style="rounded=1;whiteSpace=wrap;html=1;fillColor=none;strokeWidth=2;align=left;fontColor=#ffffff;strokeColor=light-dark(#2D7600, #cc0100);fontSize=20;" vertex="1" parent="1">
          <mxGeometry x="600" y="320" width="400" height="280" as="geometry" />
        </mxCell>
        <mxCell id="sBAMjuHIIU13v0jw5Ff4-57" style="edgeStyle=orthogonalEdgeStyle;rounded=0;orthogonalLoop=1;jettySize=auto;html=1;entryX=0.5;entryY=0;entryDx=0;entryDy=0;endArrow=none;endFill=0;fontSize=20;" edge="1" parent="1" source="sBAMjuHIIU13v0jw5Ff4-60" target="sBAMjuHIIU13v0jw5Ff4-61">
          <mxGeometry relative="1" as="geometry" />
        </mxCell>
        <mxCell id="sBAMjuHIIU13v0jw5Ff4-58" style="rounded=0;orthogonalLoop=1;jettySize=auto;html=1;entryX=0.5;entryY=0;entryDx=0;entryDy=0;curved=0;endArrow=none;endFill=0;exitX=0.5;exitY=1;exitDx=0;exitDy=0;fontSize=20;" edge="1" parent="1" source="sBAMjuHIIU13v0jw5Ff4-60" target="sBAMjuHIIU13v0jw5Ff4-66">
          <mxGeometry relative="1" as="geometry" />
        </mxCell>
        <mxCell id="sBAMjuHIIU13v0jw5Ff4-59" style="rounded=0;orthogonalLoop=1;jettySize=auto;html=1;endArrow=none;endFill=0;exitX=0.5;exitY=1;exitDx=0;exitDy=0;fontSize=20;" edge="1" parent="1" source="sBAMjuHIIU13v0jw5Ff4-60">
          <mxGeometry relative="1" as="geometry">
            <mxPoint x="920" y="500" as="targetPoint" />
          </mxGeometry>
        </mxCell>
        <mxCell id="sBAMjuHIIU13v0jw5Ff4-60" value="T&lt;sub&gt;2,1&lt;/sub&gt;" style="ellipse;whiteSpace=wrap;html=1;aspect=fixed;fillColor=light-dark(#FFFFFF,#CC0000);fontColor=#ffffff;strokeColor=#B20000;fontSize=20;" vertex="1" parent="1">
          <mxGeometry x="630" y="350" width="80" height="80" as="geometry" />
        </mxCell>
        <mxCell id="sBAMjuHIIU13v0jw5Ff4-61" value="B&lt;sub&gt;2,1&lt;/sub&gt;" style="ellipse;whiteSpace=wrap;html=1;aspect=fixed;fillColor=light-dark(#FFFFFF,#CC0000);fontColor=#ffffff;strokeColor=#B20000;fontSize=20;" vertex="1" parent="1">
          <mxGeometry x="630" y="500" width="80" height="80" as="geometry" />
        </mxCell>
        <mxCell id="sBAMjuHIIU13v0jw5Ff4-62" style="edgeStyle=orthogonalEdgeStyle;rounded=0;orthogonalLoop=1;jettySize=auto;html=1;entryX=0.5;entryY=0;entryDx=0;entryDy=0;endArrow=none;endFill=0;fontSize=20;" edge="1" parent="1" source="sBAMjuHIIU13v0jw5Ff4-65" target="sBAMjuHIIU13v0jw5Ff4-66">
          <mxGeometry relative="1" as="geometry" />
        </mxCell>
        <mxCell id="sBAMjuHIIU13v0jw5Ff4-63" style="rounded=0;orthogonalLoop=1;jettySize=auto;html=1;entryX=0.5;entryY=0;entryDx=0;entryDy=0;endArrow=none;endFill=0;exitX=0.5;exitY=1;exitDx=0;exitDy=0;fontSize=20;" edge="1" parent="1" source="sBAMjuHIIU13v0jw5Ff4-65" target="sBAMjuHIIU13v0jw5Ff4-61">
          <mxGeometry relative="1" as="geometry" />
        </mxCell>
        <mxCell id="sBAMjuHIIU13v0jw5Ff4-64" style="rounded=0;orthogonalLoop=1;jettySize=auto;html=1;entryX=0.5;entryY=0;entryDx=0;entryDy=0;endArrow=none;endFill=0;exitX=0.5;exitY=1;exitDx=0;exitDy=0;fontSize=20;" edge="1" parent="1" source="sBAMjuHIIU13v0jw5Ff4-65" target="sBAMjuHIIU13v0jw5Ff4-71">
          <mxGeometry relative="1" as="geometry" />
        </mxCell>
        <mxCell id="sBAMjuHIIU13v0jw5Ff4-65" value="T&lt;sub&gt;2,2&lt;/sub&gt;" style="ellipse;whiteSpace=wrap;html=1;aspect=fixed;fillColor=light-dark(#FFFFFF,#CC0000);fontColor=#ffffff;strokeColor=#B20000;fontSize=20;" vertex="1" parent="1">
          <mxGeometry x="755" y="350" width="80" height="80" as="geometry" />
        </mxCell>
        <mxCell id="sBAMjuHIIU13v0jw5Ff4-66" value="B&lt;sub&gt;2,2&lt;/sub&gt;" style="ellipse;whiteSpace=wrap;html=1;aspect=fixed;fillColor=light-dark(#FFFFFF,#CC0000);fontColor=#ffffff;strokeColor=#B20000;fontSize=20;" vertex="1" parent="1">
          <mxGeometry x="755" y="500" width="80" height="80" as="geometry" />
        </mxCell>
        <mxCell id="sBAMjuHIIU13v0jw5Ff4-67" style="rounded=0;orthogonalLoop=1;jettySize=auto;html=1;entryX=0.5;entryY=0;entryDx=0;entryDy=0;endArrow=none;endFill=0;fontSize=20;" edge="1" parent="1" target="sBAMjuHIIU13v0jw5Ff4-66">
          <mxGeometry relative="1" as="geometry">
            <mxPoint x="920" y="430" as="sourcePoint" />
          </mxGeometry>
        </mxCell>
        <mxCell id="sBAMjuHIIU13v0jw5Ff4-68" style="rounded=0;orthogonalLoop=1;jettySize=auto;html=1;entryX=0.5;entryY=0;entryDx=0;entryDy=0;endArrow=none;endFill=0;exitX=0.5;exitY=1;exitDx=0;exitDy=0;fontSize=20;" edge="1" parent="1" source="sBAMjuHIIU13v0jw5Ff4-70" target="sBAMjuHIIU13v0jw5Ff4-61">
          <mxGeometry relative="1" as="geometry" />
        </mxCell>
        <mxCell id="sBAMjuHIIU13v0jw5Ff4-69" style="rounded=0;orthogonalLoop=1;jettySize=auto;html=1;endArrow=none;endFill=0;fontSize=20;" edge="1" parent="1" source="sBAMjuHIIU13v0jw5Ff4-70">
          <mxGeometry relative="1" as="geometry">
            <mxPoint x="920" y="500" as="targetPoint" />
          </mxGeometry>
        </mxCell>
        <mxCell id="sBAMjuHIIU13v0jw5Ff4-70" value="T&lt;sub&gt;2,3&lt;/sub&gt;" style="ellipse;whiteSpace=wrap;html=1;aspect=fixed;fillColor=light-dark(#FFFFFF,#CC0000);fontColor=#ffffff;strokeColor=#B20000;fontSize=20;" vertex="1" parent="1">
          <mxGeometry x="880" y="350" width="80" height="80" as="geometry" />
        </mxCell>
        <mxCell id="sBAMjuHIIU13v0jw5Ff4-71" value="B&lt;sub&gt;2,3&lt;/sub&gt;" style="ellipse;whiteSpace=wrap;html=1;aspect=fixed;fillColor=light-dark(#FFFFFF,#CC0000);fontColor=#ffffff;strokeColor=#B20000;fontSize=20;" vertex="1" parent="1">
          <mxGeometry x="880" y="500" width="80" height="80" as="geometry" />
        </mxCell>
        <mxCell id="sBAMjuHIIU13v0jw5Ff4-72" value="&lt;span&gt;P&lt;span style=&quot;font-size: 16.6667px;&quot;&gt;&lt;sub&gt;2&lt;/sub&gt;&lt;/span&gt;&lt;/span&gt;" style="text;html=1;whiteSpace=wrap;strokeColor=none;fillColor=none;align=center;verticalAlign=middle;rounded=0;fontSize=20;" vertex="1" parent="1">
          <mxGeometry x="600" y="330" width="60" height="30" as="geometry" />
        </mxCell>
        <mxCell id="sBAMjuHIIU13v0jw5Ff4-74" style="edgeStyle=orthogonalEdgeStyle;rounded=0;orthogonalLoop=1;jettySize=auto;html=1;entryX=0.5;entryY=0;entryDx=0;entryDy=0;endArrow=none;endFill=0;fontSize=20;" edge="1" parent="1" source="sBAMjuHIIU13v0jw5Ff4-77" target="sBAMjuHIIU13v0jw5Ff4-78">
          <mxGeometry relative="1" as="geometry" />
        </mxCell>
        <mxCell id="sBAMjuHIIU13v0jw5Ff4-75" style="rounded=0;orthogonalLoop=1;jettySize=auto;html=1;entryX=0.5;entryY=0;entryDx=0;entryDy=0;curved=0;endArrow=none;endFill=0;exitX=0.5;exitY=1;exitDx=0;exitDy=0;fontSize=20;" edge="1" parent="1" source="sBAMjuHIIU13v0jw5Ff4-77" target="sBAMjuHIIU13v0jw5Ff4-83">
          <mxGeometry relative="1" as="geometry" />
        </mxCell>
        <mxCell id="sBAMjuHIIU13v0jw5Ff4-76" style="rounded=0;orthogonalLoop=1;jettySize=auto;html=1;endArrow=none;endFill=0;exitX=0.5;exitY=1;exitDx=0;exitDy=0;fontSize=20;" edge="1" parent="1" source="sBAMjuHIIU13v0jw5Ff4-77">
          <mxGeometry relative="1" as="geometry">
            <mxPoint x="1360" y="500" as="targetPoint" />
          </mxGeometry>
        </mxCell>
        <mxCell id="sBAMjuHIIU13v0jw5Ff4-77" value="T&lt;sub&gt;3,1&lt;/sub&gt;" style="ellipse;whiteSpace=wrap;html=1;aspect=fixed;fillColor=light-dark(#FFFFFF,#CC0000);fontColor=#ffffff;strokeColor=#B20000;fontSize=20;" vertex="1" parent="1">
          <mxGeometry x="1070" y="350" width="80" height="80" as="geometry" />
        </mxCell>
        <mxCell id="sBAMjuHIIU13v0jw5Ff4-78" value="B&lt;sub&gt;3,1&lt;/sub&gt;" style="ellipse;whiteSpace=wrap;html=1;aspect=fixed;fillColor=light-dark(#FFFFFF,#CC0000);fontColor=#ffffff;strokeColor=#B20000;fontSize=20;" vertex="1" parent="1">
          <mxGeometry x="1070" y="500" width="80" height="80" as="geometry" />
        </mxCell>
        <mxCell id="sBAMjuHIIU13v0jw5Ff4-79" style="edgeStyle=orthogonalEdgeStyle;rounded=0;orthogonalLoop=1;jettySize=auto;html=1;entryX=0.5;entryY=0;entryDx=0;entryDy=0;endArrow=none;endFill=0;fontSize=20;" edge="1" parent="1" source="sBAMjuHIIU13v0jw5Ff4-82" target="sBAMjuHIIU13v0jw5Ff4-83">
          <mxGeometry relative="1" as="geometry" />
        </mxCell>
        <mxCell id="sBAMjuHIIU13v0jw5Ff4-80" style="rounded=0;orthogonalLoop=1;jettySize=auto;html=1;entryX=0.5;entryY=0;entryDx=0;entryDy=0;endArrow=none;endFill=0;exitX=0.5;exitY=1;exitDx=0;exitDy=0;fontSize=20;" edge="1" parent="1" source="sBAMjuHIIU13v0jw5Ff4-82" target="sBAMjuHIIU13v0jw5Ff4-78">
          <mxGeometry relative="1" as="geometry" />
        </mxCell>
        <mxCell id="sBAMjuHIIU13v0jw5Ff4-81" style="rounded=0;orthogonalLoop=1;jettySize=auto;html=1;entryX=0.5;entryY=0;entryDx=0;entryDy=0;endArrow=none;endFill=0;exitX=0.5;exitY=1;exitDx=0;exitDy=0;fontSize=20;" edge="1" parent="1" source="sBAMjuHIIU13v0jw5Ff4-82" target="sBAMjuHIIU13v0jw5Ff4-88">
          <mxGeometry relative="1" as="geometry" />
        </mxCell>
        <mxCell id="sBAMjuHIIU13v0jw5Ff4-82" value="T&lt;sub&gt;3,2&lt;/sub&gt;" style="ellipse;whiteSpace=wrap;html=1;aspect=fixed;fillColor=light-dark(#FFFFFF,#CC0000);fontColor=#ffffff;strokeColor=#B20000;fontSize=20;" vertex="1" parent="1">
          <mxGeometry x="1195" y="350" width="80" height="80" as="geometry" />
        </mxCell>
        <mxCell id="sBAMjuHIIU13v0jw5Ff4-83" value="B&lt;sub&gt;3,2&lt;/sub&gt;" style="ellipse;whiteSpace=wrap;html=1;aspect=fixed;fillColor=light-dark(#FFFFFF,#CC0000);fontColor=#ffffff;strokeColor=#B20000;fontSize=20;" vertex="1" parent="1">
          <mxGeometry x="1195" y="500" width="80" height="80" as="geometry" />
        </mxCell>
        <mxCell id="sBAMjuHIIU13v0jw5Ff4-84" style="rounded=0;orthogonalLoop=1;jettySize=auto;html=1;entryX=0.5;entryY=0;entryDx=0;entryDy=0;endArrow=none;endFill=0;fontSize=20;" edge="1" parent="1" target="sBAMjuHIIU13v0jw5Ff4-83">
          <mxGeometry relative="1" as="geometry">
            <mxPoint x="1360" y="430" as="sourcePoint" />
          </mxGeometry>
        </mxCell>
        <mxCell id="sBAMjuHIIU13v0jw5Ff4-85" style="rounded=0;orthogonalLoop=1;jettySize=auto;html=1;entryX=0.5;entryY=0;entryDx=0;entryDy=0;endArrow=none;endFill=0;exitX=0.5;exitY=1;exitDx=0;exitDy=0;fontSize=20;" edge="1" parent="1" source="sBAMjuHIIU13v0jw5Ff4-87" target="sBAMjuHIIU13v0jw5Ff4-78">
          <mxGeometry relative="1" as="geometry" />
        </mxCell>
        <mxCell id="sBAMjuHIIU13v0jw5Ff4-86" style="rounded=0;orthogonalLoop=1;jettySize=auto;html=1;endArrow=none;endFill=0;fontSize=20;" edge="1" parent="1" source="sBAMjuHIIU13v0jw5Ff4-87">
          <mxGeometry relative="1" as="geometry">
            <mxPoint x="1360" y="500" as="targetPoint" />
          </mxGeometry>
        </mxCell>
        <mxCell id="sBAMjuHIIU13v0jw5Ff4-87" value="T&lt;sub&gt;3,3&lt;/sub&gt;" style="ellipse;whiteSpace=wrap;html=1;aspect=fixed;fillColor=light-dark(#FFFFFF,#CC0000);fontColor=#ffffff;strokeColor=#B20000;fontSize=20;" vertex="1" parent="1">
          <mxGeometry x="1320" y="350" width="80" height="80" as="geometry" />
        </mxCell>
        <mxCell id="sBAMjuHIIU13v0jw5Ff4-88" value="B&lt;sub&gt;3,3&lt;/sub&gt;" style="ellipse;whiteSpace=wrap;html=1;aspect=fixed;fillColor=light-dark(#FFFFFF,#CC0000);fontColor=#ffffff;strokeColor=#B20000;fontSize=20;" vertex="1" parent="1">
          <mxGeometry x="1320" y="500" width="80" height="80" as="geometry" />
        </mxCell>
        <mxCell id="sBAMjuHIIU13v0jw5Ff4-89" value="&lt;span&gt;P&lt;span style=&quot;font-size: 16.6667px;&quot;&gt;&lt;sub&gt;3&lt;/sub&gt;&lt;/span&gt;&lt;/span&gt;" style="text;html=1;whiteSpace=wrap;strokeColor=none;fillColor=none;align=center;verticalAlign=middle;rounded=0;fontSize=20;" vertex="1" parent="1">
          <mxGeometry x="1040" y="330" width="60" height="30" as="geometry" />
        </mxCell>
        <mxCell id="sBAMjuHIIU13v0jw5Ff4-91" style="edgeStyle=orthogonalEdgeStyle;rounded=0;orthogonalLoop=1;jettySize=auto;html=1;entryX=0.5;entryY=0;entryDx=0;entryDy=0;endArrow=none;endFill=0;fontSize=20;" edge="1" parent="1" source="sBAMjuHIIU13v0jw5Ff4-94" target="sBAMjuHIIU13v0jw5Ff4-95">
          <mxGeometry relative="1" as="geometry" />
        </mxCell>
        <mxCell id="sBAMjuHIIU13v0jw5Ff4-92" style="rounded=0;orthogonalLoop=1;jettySize=auto;html=1;entryX=0.5;entryY=0;entryDx=0;entryDy=0;curved=0;endArrow=none;endFill=0;exitX=0.5;exitY=1;exitDx=0;exitDy=0;fontSize=20;" edge="1" parent="1" source="sBAMjuHIIU13v0jw5Ff4-94" target="sBAMjuHIIU13v0jw5Ff4-100">
          <mxGeometry relative="1" as="geometry" />
        </mxCell>
        <mxCell id="sBAMjuHIIU13v0jw5Ff4-93" style="rounded=0;orthogonalLoop=1;jettySize=auto;html=1;endArrow=none;endFill=0;exitX=0.5;exitY=1;exitDx=0;exitDy=0;fontSize=20;" edge="1" parent="1" source="sBAMjuHIIU13v0jw5Ff4-94">
          <mxGeometry relative="1" as="geometry">
            <mxPoint x="1800" y="500" as="targetPoint" />
          </mxGeometry>
        </mxCell>
        <mxCell id="sBAMjuHIIU13v0jw5Ff4-94" value="T&lt;sub&gt;4,1&lt;/sub&gt;" style="ellipse;whiteSpace=wrap;html=1;aspect=fixed;fillColor=light-dark(#FFFFFF,#CC0000);fontColor=#ffffff;strokeColor=#B20000;fontSize=20;" vertex="1" parent="1">
          <mxGeometry x="1510" y="350" width="80" height="80" as="geometry" />
        </mxCell>
        <mxCell id="sBAMjuHIIU13v0jw5Ff4-95" value="B&lt;sub&gt;4,1&lt;/sub&gt;" style="ellipse;whiteSpace=wrap;html=1;aspect=fixed;fillColor=light-dark(#FFFFFF,#CC0000);fontColor=#ffffff;strokeColor=#B20000;fontSize=20;" vertex="1" parent="1">
          <mxGeometry x="1510" y="500" width="80" height="80" as="geometry" />
        </mxCell>
        <mxCell id="sBAMjuHIIU13v0jw5Ff4-96" style="edgeStyle=orthogonalEdgeStyle;rounded=0;orthogonalLoop=1;jettySize=auto;html=1;entryX=0.5;entryY=0;entryDx=0;entryDy=0;endArrow=none;endFill=0;fontSize=20;" edge="1" parent="1" source="sBAMjuHIIU13v0jw5Ff4-99" target="sBAMjuHIIU13v0jw5Ff4-100">
          <mxGeometry relative="1" as="geometry" />
        </mxCell>
        <mxCell id="sBAMjuHIIU13v0jw5Ff4-97" style="rounded=0;orthogonalLoop=1;jettySize=auto;html=1;entryX=0.5;entryY=0;entryDx=0;entryDy=0;endArrow=none;endFill=0;exitX=0.5;exitY=1;exitDx=0;exitDy=0;fontSize=20;" edge="1" parent="1" source="sBAMjuHIIU13v0jw5Ff4-99" target="sBAMjuHIIU13v0jw5Ff4-95">
          <mxGeometry relative="1" as="geometry" />
        </mxCell>
        <mxCell id="sBAMjuHIIU13v0jw5Ff4-98" style="rounded=0;orthogonalLoop=1;jettySize=auto;html=1;entryX=0.5;entryY=0;entryDx=0;entryDy=0;endArrow=none;endFill=0;exitX=0.5;exitY=1;exitDx=0;exitDy=0;fontSize=20;" edge="1" parent="1" source="sBAMjuHIIU13v0jw5Ff4-99" target="sBAMjuHIIU13v0jw5Ff4-105">
          <mxGeometry relative="1" as="geometry" />
        </mxCell>
        <mxCell id="sBAMjuHIIU13v0jw5Ff4-99" value="T&lt;sub&gt;4,2&lt;/sub&gt;" style="ellipse;whiteSpace=wrap;html=1;aspect=fixed;fillColor=light-dark(#FFFFFF,#CC0000);fontColor=#ffffff;strokeColor=#B20000;fontSize=20;" vertex="1" parent="1">
          <mxGeometry x="1635" y="350" width="80" height="80" as="geometry" />
        </mxCell>
        <mxCell id="sBAMjuHIIU13v0jw5Ff4-100" value="B&lt;sub&gt;4,2&lt;/sub&gt;" style="ellipse;whiteSpace=wrap;html=1;aspect=fixed;fillColor=light-dark(#FFFFFF,#CC0000);fontColor=#ffffff;strokeColor=#B20000;fontSize=20;" vertex="1" parent="1">
          <mxGeometry x="1635" y="500" width="80" height="80" as="geometry" />
        </mxCell>
        <mxCell id="sBAMjuHIIU13v0jw5Ff4-101" style="rounded=0;orthogonalLoop=1;jettySize=auto;html=1;entryX=0.5;entryY=0;entryDx=0;entryDy=0;endArrow=none;endFill=0;fontSize=20;" edge="1" parent="1" target="sBAMjuHIIU13v0jw5Ff4-100">
          <mxGeometry relative="1" as="geometry">
            <mxPoint x="1800" y="430" as="sourcePoint" />
          </mxGeometry>
        </mxCell>
        <mxCell id="sBAMjuHIIU13v0jw5Ff4-102" style="rounded=0;orthogonalLoop=1;jettySize=auto;html=1;entryX=0.5;entryY=0;entryDx=0;entryDy=0;endArrow=none;endFill=0;exitX=0.5;exitY=1;exitDx=0;exitDy=0;fontSize=20;" edge="1" parent="1" source="sBAMjuHIIU13v0jw5Ff4-104" target="sBAMjuHIIU13v0jw5Ff4-95">
          <mxGeometry relative="1" as="geometry" />
        </mxCell>
        <mxCell id="sBAMjuHIIU13v0jw5Ff4-103" style="rounded=0;orthogonalLoop=1;jettySize=auto;html=1;endArrow=none;endFill=0;fontSize=20;" edge="1" parent="1" source="sBAMjuHIIU13v0jw5Ff4-104">
          <mxGeometry relative="1" as="geometry">
            <mxPoint x="1800" y="500" as="targetPoint" />
          </mxGeometry>
        </mxCell>
        <mxCell id="sBAMjuHIIU13v0jw5Ff4-104" value="T&lt;sub&gt;4,3&lt;/sub&gt;" style="ellipse;whiteSpace=wrap;html=1;aspect=fixed;fillColor=light-dark(#FFFFFF,#CC0000);fontColor=#ffffff;strokeColor=#B20000;fontSize=20;" vertex="1" parent="1">
          <mxGeometry x="1760" y="350" width="80" height="80" as="geometry" />
        </mxCell>
        <mxCell id="sBAMjuHIIU13v0jw5Ff4-105" value="B&lt;sub&gt;4,3&lt;/sub&gt;" style="ellipse;whiteSpace=wrap;html=1;aspect=fixed;fillColor=light-dark(#FFFFFF,#CC0000);fontColor=#ffffff;strokeColor=#B20000;fontSize=20;" vertex="1" parent="1">
          <mxGeometry x="1760" y="500" width="80" height="80" as="geometry" />
        </mxCell>
        <mxCell id="sBAMjuHIIU13v0jw5Ff4-106" value="&lt;span&gt;P&lt;span style=&quot;font-size: 13.8889px;&quot;&gt;&lt;sub&gt;4&lt;/sub&gt;&lt;/span&gt;&lt;/span&gt;" style="text;html=1;whiteSpace=wrap;strokeColor=none;fillColor=none;align=center;verticalAlign=middle;rounded=0;fontSize=20;" vertex="1" parent="1">
          <mxGeometry x="1480" y="330" width="60" height="30" as="geometry" />
        </mxCell>
        <mxCell id="sBAMjuHIIU13v0jw5Ff4-108" style="edgeStyle=orthogonalEdgeStyle;rounded=0;orthogonalLoop=1;jettySize=auto;html=1;entryX=0.5;entryY=0;entryDx=0;entryDy=0;endArrow=none;endFill=0;fontSize=20;" edge="1" parent="1" source="sBAMjuHIIU13v0jw5Ff4-111" target="sBAMjuHIIU13v0jw5Ff4-112">
          <mxGeometry relative="1" as="geometry" />
        </mxCell>
        <mxCell id="sBAMjuHIIU13v0jw5Ff4-109" style="rounded=0;orthogonalLoop=1;jettySize=auto;html=1;entryX=0.5;entryY=0;entryDx=0;entryDy=0;curved=0;endArrow=none;endFill=0;exitX=0.5;exitY=1;exitDx=0;exitDy=0;fontSize=20;" edge="1" parent="1" source="sBAMjuHIIU13v0jw5Ff4-111" target="sBAMjuHIIU13v0jw5Ff4-117">
          <mxGeometry relative="1" as="geometry" />
        </mxCell>
        <mxCell id="sBAMjuHIIU13v0jw5Ff4-110" style="rounded=0;orthogonalLoop=1;jettySize=auto;html=1;endArrow=none;endFill=0;exitX=0.5;exitY=1;exitDx=0;exitDy=0;fontSize=20;" edge="1" parent="1" source="sBAMjuHIIU13v0jw5Ff4-111">
          <mxGeometry relative="1" as="geometry">
            <mxPoint x="2245" y="500" as="targetPoint" />
          </mxGeometry>
        </mxCell>
        <mxCell id="sBAMjuHIIU13v0jw5Ff4-111" value="T&lt;sub&gt;5,1&lt;/sub&gt;" style="ellipse;whiteSpace=wrap;html=1;aspect=fixed;fillColor=light-dark(#FFFFFF,#CC0000);fontColor=#ffffff;strokeColor=#B20000;fontSize=20;" vertex="1" parent="1">
          <mxGeometry x="1955" y="350" width="80" height="80" as="geometry" />
        </mxCell>
        <mxCell id="sBAMjuHIIU13v0jw5Ff4-112" value="B&lt;sub&gt;5,1&lt;/sub&gt;" style="ellipse;whiteSpace=wrap;html=1;aspect=fixed;fillColor=light-dark(#FFFFFF,#CC0000);fontColor=#ffffff;strokeColor=#B20000;fontSize=20;" vertex="1" parent="1">
          <mxGeometry x="1955" y="500" width="80" height="80" as="geometry" />
        </mxCell>
        <mxCell id="sBAMjuHIIU13v0jw5Ff4-113" style="edgeStyle=orthogonalEdgeStyle;rounded=0;orthogonalLoop=1;jettySize=auto;html=1;entryX=0.5;entryY=0;entryDx=0;entryDy=0;endArrow=none;endFill=0;fontSize=20;" edge="1" parent="1" source="sBAMjuHIIU13v0jw5Ff4-116" target="sBAMjuHIIU13v0jw5Ff4-117">
          <mxGeometry relative="1" as="geometry" />
        </mxCell>
        <mxCell id="sBAMjuHIIU13v0jw5Ff4-114" style="rounded=0;orthogonalLoop=1;jettySize=auto;html=1;entryX=0.5;entryY=0;entryDx=0;entryDy=0;endArrow=none;endFill=0;exitX=0.5;exitY=1;exitDx=0;exitDy=0;fontSize=20;" edge="1" parent="1" source="sBAMjuHIIU13v0jw5Ff4-116" target="sBAMjuHIIU13v0jw5Ff4-112">
          <mxGeometry relative="1" as="geometry" />
        </mxCell>
        <mxCell id="sBAMjuHIIU13v0jw5Ff4-115" style="rounded=0;orthogonalLoop=1;jettySize=auto;html=1;entryX=0.5;entryY=0;entryDx=0;entryDy=0;endArrow=none;endFill=0;exitX=0.5;exitY=1;exitDx=0;exitDy=0;fontSize=20;" edge="1" parent="1" source="sBAMjuHIIU13v0jw5Ff4-116" target="sBAMjuHIIU13v0jw5Ff4-122">
          <mxGeometry relative="1" as="geometry" />
        </mxCell>
        <mxCell id="sBAMjuHIIU13v0jw5Ff4-116" value="T&lt;sub&gt;5,2&lt;/sub&gt;" style="ellipse;whiteSpace=wrap;html=1;aspect=fixed;fillColor=light-dark(#FFFFFF,#CC0000);fontColor=#ffffff;strokeColor=#B20000;fontSize=20;" vertex="1" parent="1">
          <mxGeometry x="2080" y="350" width="80" height="80" as="geometry" />
        </mxCell>
        <mxCell id="sBAMjuHIIU13v0jw5Ff4-117" value="B&lt;sub&gt;5,2&lt;/sub&gt;" style="ellipse;whiteSpace=wrap;html=1;aspect=fixed;fillColor=light-dark(#FFFFFF,#CC0000);fontColor=#ffffff;strokeColor=#B20000;fontSize=20;" vertex="1" parent="1">
          <mxGeometry x="2080" y="500" width="80" height="80" as="geometry" />
        </mxCell>
        <mxCell id="sBAMjuHIIU13v0jw5Ff4-118" style="rounded=0;orthogonalLoop=1;jettySize=auto;html=1;entryX=0.5;entryY=0;entryDx=0;entryDy=0;endArrow=none;endFill=0;fontSize=20;" edge="1" parent="1" target="sBAMjuHIIU13v0jw5Ff4-117">
          <mxGeometry relative="1" as="geometry">
            <mxPoint x="2245" y="430" as="sourcePoint" />
          </mxGeometry>
        </mxCell>
        <mxCell id="sBAMjuHIIU13v0jw5Ff4-119" style="rounded=0;orthogonalLoop=1;jettySize=auto;html=1;entryX=0.5;entryY=0;entryDx=0;entryDy=0;endArrow=none;endFill=0;exitX=0.5;exitY=1;exitDx=0;exitDy=0;fontSize=20;" edge="1" parent="1" source="sBAMjuHIIU13v0jw5Ff4-121" target="sBAMjuHIIU13v0jw5Ff4-112">
          <mxGeometry relative="1" as="geometry" />
        </mxCell>
        <mxCell id="sBAMjuHIIU13v0jw5Ff4-120" style="rounded=0;orthogonalLoop=1;jettySize=auto;html=1;endArrow=none;endFill=0;fontSize=20;" edge="1" parent="1" source="sBAMjuHIIU13v0jw5Ff4-121">
          <mxGeometry relative="1" as="geometry">
            <mxPoint x="2245" y="500" as="targetPoint" />
          </mxGeometry>
        </mxCell>
        <mxCell id="sBAMjuHIIU13v0jw5Ff4-121" value="T&lt;sub&gt;5,3&lt;/sub&gt;" style="ellipse;whiteSpace=wrap;html=1;aspect=fixed;fillColor=light-dark(#FFFFFF,#CC0000);fontColor=#ffffff;strokeColor=#B20000;fontSize=20;" vertex="1" parent="1">
          <mxGeometry x="2205" y="350" width="80" height="80" as="geometry" />
        </mxCell>
        <mxCell id="sBAMjuHIIU13v0jw5Ff4-122" value="B&lt;sub&gt;5,3&lt;/sub&gt;" style="ellipse;whiteSpace=wrap;html=1;aspect=fixed;fillColor=light-dark(#FFFFFF,#CC0000);fontColor=#ffffff;strokeColor=#B20000;fontSize=20;" vertex="1" parent="1">
          <mxGeometry x="2205" y="500" width="80" height="80" as="geometry" />
        </mxCell>
        <mxCell id="sBAMjuHIIU13v0jw5Ff4-123" value="&lt;span&gt;P&lt;span style=&quot;font-size: 13.8889px;&quot;&gt;&lt;sub&gt;5&lt;/sub&gt;&lt;/span&gt;&lt;/span&gt;" style="text;html=1;whiteSpace=wrap;strokeColor=none;fillColor=none;align=center;verticalAlign=middle;rounded=0;fontSize=20;" vertex="1" parent="1">
          <mxGeometry x="1925" y="330" width="60" height="30" as="geometry" />
        </mxCell>
        <mxCell id="sBAMjuHIIU13v0jw5Ff4-125" style="edgeStyle=orthogonalEdgeStyle;rounded=0;orthogonalLoop=1;jettySize=auto;html=1;entryX=0.5;entryY=0;entryDx=0;entryDy=0;endArrow=none;endFill=0;fontSize=20;" edge="1" parent="1" source="sBAMjuHIIU13v0jw5Ff4-128" target="sBAMjuHIIU13v0jw5Ff4-129">
          <mxGeometry relative="1" as="geometry" />
        </mxCell>
        <mxCell id="sBAMjuHIIU13v0jw5Ff4-126" style="rounded=0;orthogonalLoop=1;jettySize=auto;html=1;entryX=0.5;entryY=0;entryDx=0;entryDy=0;curved=0;endArrow=none;endFill=0;exitX=0.5;exitY=1;exitDx=0;exitDy=0;fontSize=20;" edge="1" parent="1" source="sBAMjuHIIU13v0jw5Ff4-128" target="sBAMjuHIIU13v0jw5Ff4-134">
          <mxGeometry relative="1" as="geometry" />
        </mxCell>
        <mxCell id="sBAMjuHIIU13v0jw5Ff4-127" style="rounded=0;orthogonalLoop=1;jettySize=auto;html=1;endArrow=none;endFill=0;exitX=0.5;exitY=1;exitDx=0;exitDy=0;fontSize=20;" edge="1" parent="1" source="sBAMjuHIIU13v0jw5Ff4-128">
          <mxGeometry relative="1" as="geometry">
            <mxPoint x="2680" y="500" as="targetPoint" />
          </mxGeometry>
        </mxCell>
        <mxCell id="sBAMjuHIIU13v0jw5Ff4-128" value="T&lt;sub&gt;6,1&lt;/sub&gt;" style="ellipse;whiteSpace=wrap;html=1;aspect=fixed;fillColor=light-dark(#FFFFFF,#CC0000);fontColor=#ffffff;strokeColor=#B20000;fontSize=20;" vertex="1" parent="1">
          <mxGeometry x="2390" y="350" width="80" height="80" as="geometry" />
        </mxCell>
        <mxCell id="sBAMjuHIIU13v0jw5Ff4-129" value="B&lt;sub&gt;6,1&lt;/sub&gt;" style="ellipse;whiteSpace=wrap;html=1;aspect=fixed;fillColor=light-dark(#FFFFFF,#CC0000);fontColor=#ffffff;strokeColor=#B20000;fontSize=20;" vertex="1" parent="1">
          <mxGeometry x="2390" y="500" width="80" height="80" as="geometry" />
        </mxCell>
        <mxCell id="sBAMjuHIIU13v0jw5Ff4-130" style="edgeStyle=orthogonalEdgeStyle;rounded=0;orthogonalLoop=1;jettySize=auto;html=1;entryX=0.5;entryY=0;entryDx=0;entryDy=0;endArrow=none;endFill=0;fontSize=20;" edge="1" parent="1" source="sBAMjuHIIU13v0jw5Ff4-133" target="sBAMjuHIIU13v0jw5Ff4-134">
          <mxGeometry relative="1" as="geometry" />
        </mxCell>
        <mxCell id="sBAMjuHIIU13v0jw5Ff4-131" style="rounded=0;orthogonalLoop=1;jettySize=auto;html=1;entryX=0.5;entryY=0;entryDx=0;entryDy=0;endArrow=none;endFill=0;exitX=0.5;exitY=1;exitDx=0;exitDy=0;fontSize=20;" edge="1" parent="1" source="sBAMjuHIIU13v0jw5Ff4-133" target="sBAMjuHIIU13v0jw5Ff4-129">
          <mxGeometry relative="1" as="geometry" />
        </mxCell>
        <mxCell id="sBAMjuHIIU13v0jw5Ff4-132" style="rounded=0;orthogonalLoop=1;jettySize=auto;html=1;entryX=0.5;entryY=0;entryDx=0;entryDy=0;endArrow=none;endFill=0;exitX=0.5;exitY=1;exitDx=0;exitDy=0;fontSize=20;" edge="1" parent="1" source="sBAMjuHIIU13v0jw5Ff4-133" target="sBAMjuHIIU13v0jw5Ff4-139">
          <mxGeometry relative="1" as="geometry" />
        </mxCell>
        <mxCell id="sBAMjuHIIU13v0jw5Ff4-133" value="T&lt;sub&gt;6,2&lt;/sub&gt;" style="ellipse;whiteSpace=wrap;html=1;aspect=fixed;fillColor=light-dark(#FFFFFF,#CC0000);fontColor=#ffffff;strokeColor=#B20000;fontSize=20;" vertex="1" parent="1">
          <mxGeometry x="2515" y="350" width="80" height="80" as="geometry" />
        </mxCell>
        <mxCell id="sBAMjuHIIU13v0jw5Ff4-134" value="B&lt;sub&gt;6,2&lt;/sub&gt;" style="ellipse;whiteSpace=wrap;html=1;aspect=fixed;fillColor=light-dark(#FFFFFF,#CC0000);fontColor=#ffffff;strokeColor=#B20000;fontSize=20;" vertex="1" parent="1">
          <mxGeometry x="2515" y="500" width="80" height="80" as="geometry" />
        </mxCell>
        <mxCell id="sBAMjuHIIU13v0jw5Ff4-135" style="rounded=0;orthogonalLoop=1;jettySize=auto;html=1;entryX=0.5;entryY=0;entryDx=0;entryDy=0;endArrow=none;endFill=0;fontSize=20;" edge="1" parent="1" target="sBAMjuHIIU13v0jw5Ff4-134">
          <mxGeometry relative="1" as="geometry">
            <mxPoint x="2680" y="430" as="sourcePoint" />
          </mxGeometry>
        </mxCell>
        <mxCell id="sBAMjuHIIU13v0jw5Ff4-136" style="rounded=0;orthogonalLoop=1;jettySize=auto;html=1;entryX=0.5;entryY=0;entryDx=0;entryDy=0;endArrow=none;endFill=0;exitX=0.5;exitY=1;exitDx=0;exitDy=0;fontSize=20;" edge="1" parent="1" source="sBAMjuHIIU13v0jw5Ff4-138" target="sBAMjuHIIU13v0jw5Ff4-129">
          <mxGeometry relative="1" as="geometry" />
        </mxCell>
        <mxCell id="sBAMjuHIIU13v0jw5Ff4-137" style="rounded=0;orthogonalLoop=1;jettySize=auto;html=1;endArrow=none;endFill=0;fontSize=20;" edge="1" parent="1" source="sBAMjuHIIU13v0jw5Ff4-138">
          <mxGeometry relative="1" as="geometry">
            <mxPoint x="2680" y="500" as="targetPoint" />
          </mxGeometry>
        </mxCell>
        <mxCell id="sBAMjuHIIU13v0jw5Ff4-138" value="T&lt;sub&gt;6,3&lt;/sub&gt;" style="ellipse;whiteSpace=wrap;html=1;aspect=fixed;fillColor=light-dark(#FFFFFF,#CC0000);fontColor=#ffffff;strokeColor=#B20000;fontSize=20;" vertex="1" parent="1">
          <mxGeometry x="2640" y="350" width="80" height="80" as="geometry" />
        </mxCell>
        <mxCell id="sBAMjuHIIU13v0jw5Ff4-139" value="B&lt;sub&gt;6,3&lt;/sub&gt;" style="ellipse;whiteSpace=wrap;html=1;aspect=fixed;fillColor=light-dark(#FFFFFF,#CC0000);fontColor=#ffffff;strokeColor=#B20000;fontSize=20;" vertex="1" parent="1">
          <mxGeometry x="2640" y="500" width="80" height="80" as="geometry" />
        </mxCell>
        <mxCell id="sBAMjuHIIU13v0jw5Ff4-140" value="&lt;span&gt;P&lt;span style=&quot;font-size: 13.8889px;&quot;&gt;&lt;sub&gt;6&lt;/sub&gt;&lt;/span&gt;&lt;/span&gt;" style="text;html=1;whiteSpace=wrap;strokeColor=none;fillColor=none;align=center;verticalAlign=middle;rounded=0;fontSize=20;" vertex="1" parent="1">
          <mxGeometry x="2360" y="330" width="60" height="30" as="geometry" />
        </mxCell>
        <mxCell id="sBAMjuHIIU13v0jw5Ff4-141" value="" style="rounded=1;whiteSpace=wrap;html=1;fillColor=none;strokeWidth=2;align=left;fontColor=#ffffff;strokeColor=#2D7600;fontSize=20;" vertex="1" parent="1">
          <mxGeometry x="1270" y="-60" width="400" height="150" as="geometry" />
        </mxCell>
        <mxCell id="sBAMjuHIIU13v0jw5Ff4-192" style="rounded=0;orthogonalLoop=1;jettySize=auto;html=1;endArrow=none;endFill=0;entryX=0.5;entryY=0;entryDx=0;entryDy=0;exitX=0.5;exitY=1;exitDx=0;exitDy=0;" edge="1" parent="1" source="sBAMjuHIIU13v0jw5Ff4-142" target="z8i-_g9vCmL76RbzS4UA-1">
          <mxGeometry relative="1" as="geometry" />
        </mxCell>
        <mxCell id="sBAMjuHIIU13v0jw5Ff4-193" style="rounded=0;orthogonalLoop=1;jettySize=auto;html=1;entryX=0.5;entryY=0;entryDx=0;entryDy=0;endArrow=none;endFill=0;exitX=0.5;exitY=1;exitDx=0;exitDy=0;" edge="1" parent="1" source="sBAMjuHIIU13v0jw5Ff4-142" target="sBAMjuHIIU13v0jw5Ff4-60">
          <mxGeometry relative="1" as="geometry" />
        </mxCell>
        <mxCell id="sBAMjuHIIU13v0jw5Ff4-194" style="rounded=0;orthogonalLoop=1;jettySize=auto;html=1;entryX=0.5;entryY=0;entryDx=0;entryDy=0;endArrow=none;endFill=0;exitX=0.5;exitY=1;exitDx=0;exitDy=0;" edge="1" parent="1" source="sBAMjuHIIU13v0jw5Ff4-142" target="sBAMjuHIIU13v0jw5Ff4-77">
          <mxGeometry relative="1" as="geometry" />
        </mxCell>
        <mxCell id="sBAMjuHIIU13v0jw5Ff4-195" style="rounded=0;orthogonalLoop=1;jettySize=auto;html=1;entryX=0.5;entryY=0;entryDx=0;entryDy=0;endArrow=none;endFill=0;exitX=0.5;exitY=1;exitDx=0;exitDy=0;" edge="1" parent="1" source="sBAMjuHIIU13v0jw5Ff4-142" target="sBAMjuHIIU13v0jw5Ff4-94">
          <mxGeometry relative="1" as="geometry" />
        </mxCell>
        <mxCell id="sBAMjuHIIU13v0jw5Ff4-196" style="rounded=0;orthogonalLoop=1;jettySize=auto;html=1;endArrow=none;endFill=0;entryX=0.5;entryY=0;entryDx=0;entryDy=0;" edge="1" parent="1" target="sBAMjuHIIU13v0jw5Ff4-111">
          <mxGeometry relative="1" as="geometry">
            <mxPoint x="1335" y="50" as="sourcePoint" />
          </mxGeometry>
        </mxCell>
        <mxCell id="sBAMjuHIIU13v0jw5Ff4-197" style="rounded=0;orthogonalLoop=1;jettySize=auto;html=1;entryX=0.5;entryY=0;entryDx=0;entryDy=0;endArrow=none;endFill=0;exitX=0.5;exitY=1;exitDx=0;exitDy=0;" edge="1" parent="1" source="sBAMjuHIIU13v0jw5Ff4-142" target="sBAMjuHIIU13v0jw5Ff4-128">
          <mxGeometry relative="1" as="geometry" />
        </mxCell>
        <mxCell id="sBAMjuHIIU13v0jw5Ff4-142" value="A&lt;sub&gt;2,1&lt;/sub&gt;" style="ellipse;whiteSpace=wrap;html=1;aspect=fixed;fillColor=#60a917;fontColor=#ffffff;strokeColor=#2D7600;fontSize=20;" vertex="1" parent="1">
          <mxGeometry x="1295" y="-30" width="80" height="80" as="geometry" />
        </mxCell>
        <mxCell id="sBAMjuHIIU13v0jw5Ff4-204" style="rounded=0;orthogonalLoop=1;jettySize=auto;html=1;endArrow=none;endFill=0;entryX=0.5;entryY=0;entryDx=0;entryDy=0;exitX=0.474;exitY=1.008;exitDx=0;exitDy=0;exitPerimeter=0;" edge="1" parent="1" source="sBAMjuHIIU13v0jw5Ff4-143" target="sBAMjuHIIU13v0jw5Ff4-5">
          <mxGeometry relative="1" as="geometry" />
        </mxCell>
        <mxCell id="sBAMjuHIIU13v0jw5Ff4-205" style="rounded=0;orthogonalLoop=1;jettySize=auto;html=1;endArrow=none;endFill=0;entryX=0.5;entryY=0;entryDx=0;entryDy=0;exitX=0.5;exitY=1;exitDx=0;exitDy=0;" edge="1" parent="1" source="sBAMjuHIIU13v0jw5Ff4-143" target="sBAMjuHIIU13v0jw5Ff4-65">
          <mxGeometry relative="1" as="geometry" />
        </mxCell>
        <mxCell id="sBAMjuHIIU13v0jw5Ff4-206" style="rounded=0;orthogonalLoop=1;jettySize=auto;html=1;entryX=0.5;entryY=0;entryDx=0;entryDy=0;endArrow=none;endFill=0;exitX=0.5;exitY=1;exitDx=0;exitDy=0;" edge="1" parent="1" source="sBAMjuHIIU13v0jw5Ff4-143" target="sBAMjuHIIU13v0jw5Ff4-82">
          <mxGeometry relative="1" as="geometry" />
        </mxCell>
        <mxCell id="sBAMjuHIIU13v0jw5Ff4-207" style="rounded=0;orthogonalLoop=1;jettySize=auto;html=1;entryX=0.5;entryY=0;entryDx=0;entryDy=0;endArrow=none;endFill=0;exitX=0.5;exitY=1;exitDx=0;exitDy=0;" edge="1" parent="1" source="sBAMjuHIIU13v0jw5Ff4-143" target="sBAMjuHIIU13v0jw5Ff4-99">
          <mxGeometry relative="1" as="geometry" />
        </mxCell>
        <mxCell id="sBAMjuHIIU13v0jw5Ff4-208" style="rounded=0;orthogonalLoop=1;jettySize=auto;html=1;endArrow=none;endFill=0;entryX=0.474;entryY=0.015;entryDx=0;entryDy=0;entryPerimeter=0;exitX=0.5;exitY=1;exitDx=0;exitDy=0;" edge="1" parent="1" source="sBAMjuHIIU13v0jw5Ff4-143" target="sBAMjuHIIU13v0jw5Ff4-116">
          <mxGeometry relative="1" as="geometry" />
        </mxCell>
        <mxCell id="sBAMjuHIIU13v0jw5Ff4-209" style="rounded=0;orthogonalLoop=1;jettySize=auto;html=1;entryX=0.5;entryY=0;entryDx=0;entryDy=0;endArrow=none;endFill=0;exitX=0.5;exitY=1;exitDx=0;exitDy=0;" edge="1" parent="1" source="sBAMjuHIIU13v0jw5Ff4-143" target="sBAMjuHIIU13v0jw5Ff4-133">
          <mxGeometry relative="1" as="geometry" />
        </mxCell>
        <mxCell id="sBAMjuHIIU13v0jw5Ff4-143" value="A&lt;sub&gt;2,2&lt;/sub&gt;" style="ellipse;whiteSpace=wrap;html=1;aspect=fixed;fillColor=#60a917;fontColor=#ffffff;strokeColor=#2D7600;fontSize=20;" vertex="1" parent="1">
          <mxGeometry x="1420" y="-30" width="80" height="80" as="geometry" />
        </mxCell>
        <mxCell id="sBAMjuHIIU13v0jw5Ff4-210" style="rounded=0;orthogonalLoop=1;jettySize=auto;html=1;entryX=0.5;entryY=0;entryDx=0;entryDy=0;endArrow=none;endFill=0;exitX=0.5;exitY=1;exitDx=0;exitDy=0;" edge="1" parent="1" source="sBAMjuHIIU13v0jw5Ff4-144" target="sBAMjuHIIU13v0jw5Ff4-138">
          <mxGeometry relative="1" as="geometry" />
        </mxCell>
        <mxCell id="sBAMjuHIIU13v0jw5Ff4-211" style="rounded=0;orthogonalLoop=1;jettySize=auto;html=1;entryX=0.5;entryY=0;entryDx=0;entryDy=0;endArrow=none;endFill=0;exitX=0.5;exitY=1;exitDx=0;exitDy=0;" edge="1" parent="1" source="sBAMjuHIIU13v0jw5Ff4-144" target="sBAMjuHIIU13v0jw5Ff4-121">
          <mxGeometry relative="1" as="geometry" />
        </mxCell>
        <mxCell id="sBAMjuHIIU13v0jw5Ff4-212" style="rounded=0;orthogonalLoop=1;jettySize=auto;html=1;entryX=0.5;entryY=0;entryDx=0;entryDy=0;endArrow=none;endFill=0;exitX=0.5;exitY=1;exitDx=0;exitDy=0;" edge="1" parent="1" source="sBAMjuHIIU13v0jw5Ff4-144" target="sBAMjuHIIU13v0jw5Ff4-104">
          <mxGeometry relative="1" as="geometry" />
        </mxCell>
        <mxCell id="sBAMjuHIIU13v0jw5Ff4-213" style="rounded=0;orthogonalLoop=1;jettySize=auto;html=1;entryX=0.5;entryY=0;entryDx=0;entryDy=0;endArrow=none;endFill=0;exitX=0.5;exitY=1;exitDx=0;exitDy=0;" edge="1" parent="1" source="sBAMjuHIIU13v0jw5Ff4-144" target="sBAMjuHIIU13v0jw5Ff4-87">
          <mxGeometry relative="1" as="geometry" />
        </mxCell>
        <mxCell id="sBAMjuHIIU13v0jw5Ff4-214" style="rounded=0;orthogonalLoop=1;jettySize=auto;html=1;entryX=0.5;entryY=0;entryDx=0;entryDy=0;endArrow=none;endFill=0;exitX=0.5;exitY=1;exitDx=0;exitDy=0;" edge="1" parent="1" source="sBAMjuHIIU13v0jw5Ff4-144" target="sBAMjuHIIU13v0jw5Ff4-70">
          <mxGeometry relative="1" as="geometry" />
        </mxCell>
        <mxCell id="sBAMjuHIIU13v0jw5Ff4-215" style="rounded=0;orthogonalLoop=1;jettySize=auto;html=1;entryX=0.5;entryY=0;entryDx=0;entryDy=0;endArrow=none;endFill=0;exitX=0.5;exitY=1;exitDx=0;exitDy=0;" edge="1" parent="1" source="sBAMjuHIIU13v0jw5Ff4-144" target="sBAMjuHIIU13v0jw5Ff4-8">
          <mxGeometry relative="1" as="geometry" />
        </mxCell>
        <mxCell id="sBAMjuHIIU13v0jw5Ff4-144" value="A&lt;sub&gt;2,3&lt;/sub&gt;" style="ellipse;whiteSpace=wrap;html=1;aspect=fixed;fillColor=#60a917;fontColor=#ffffff;strokeColor=#2D7600;fontSize=20;" vertex="1" parent="1">
          <mxGeometry x="1545" y="-30" width="80" height="80" as="geometry" />
        </mxCell>
        <mxCell id="sBAMjuHIIU13v0jw5Ff4-145" value="A&lt;sub&gt;2&lt;/sub&gt;" style="text;html=1;whiteSpace=wrap;strokeColor=none;fillColor=none;align=center;verticalAlign=middle;rounded=0;fontSize=20;" vertex="1" parent="1">
          <mxGeometry x="1260" y="-50" width="60" height="30" as="geometry" />
        </mxCell>
        <mxCell id="sBAMjuHIIU13v0jw5Ff4-146" value="" style="rounded=1;whiteSpace=wrap;html=1;fillColor=none;strokeWidth=2;align=left;fontColor=#ffffff;strokeColor=#2D7600;fontSize=20;" vertex="1" parent="1">
          <mxGeometry x="2040" y="-65" width="400" height="150" as="geometry" />
        </mxCell>
        <mxCell id="sBAMjuHIIU13v0jw5Ff4-198" style="rounded=0;orthogonalLoop=1;jettySize=auto;html=1;entryX=0.5;entryY=0;entryDx=0;entryDy=0;endArrow=none;endFill=0;exitX=0.5;exitY=1;exitDx=0;exitDy=0;" edge="1" parent="1" source="sBAMjuHIIU13v0jw5Ff4-147" target="sBAMjuHIIU13v0jw5Ff4-128">
          <mxGeometry relative="1" as="geometry" />
        </mxCell>
        <mxCell id="sBAMjuHIIU13v0jw5Ff4-199" style="rounded=0;orthogonalLoop=1;jettySize=auto;html=1;entryX=0.5;entryY=0;entryDx=0;entryDy=0;endArrow=none;endFill=0;exitX=0.5;exitY=1;exitDx=0;exitDy=0;" edge="1" parent="1" source="sBAMjuHIIU13v0jw5Ff4-147" target="sBAMjuHIIU13v0jw5Ff4-111">
          <mxGeometry relative="1" as="geometry" />
        </mxCell>
        <mxCell id="sBAMjuHIIU13v0jw5Ff4-200" style="rounded=0;orthogonalLoop=1;jettySize=auto;html=1;entryX=0.5;entryY=0;entryDx=0;entryDy=0;endArrow=none;endFill=0;exitX=0.5;exitY=1;exitDx=0;exitDy=0;" edge="1" parent="1" source="sBAMjuHIIU13v0jw5Ff4-147" target="sBAMjuHIIU13v0jw5Ff4-94">
          <mxGeometry relative="1" as="geometry" />
        </mxCell>
        <mxCell id="sBAMjuHIIU13v0jw5Ff4-201" style="rounded=0;orthogonalLoop=1;jettySize=auto;html=1;entryX=0.5;entryY=0;entryDx=0;entryDy=0;endArrow=none;endFill=0;exitX=0.5;exitY=1;exitDx=0;exitDy=0;" edge="1" parent="1" source="sBAMjuHIIU13v0jw5Ff4-147" target="sBAMjuHIIU13v0jw5Ff4-77">
          <mxGeometry relative="1" as="geometry" />
        </mxCell>
        <mxCell id="sBAMjuHIIU13v0jw5Ff4-202" style="rounded=0;orthogonalLoop=1;jettySize=auto;html=1;entryX=0.5;entryY=0;entryDx=0;entryDy=0;endArrow=none;endFill=0;exitX=0.5;exitY=1;exitDx=0;exitDy=0;" edge="1" parent="1" source="sBAMjuHIIU13v0jw5Ff4-147" target="sBAMjuHIIU13v0jw5Ff4-60">
          <mxGeometry relative="1" as="geometry" />
        </mxCell>
        <mxCell id="sBAMjuHIIU13v0jw5Ff4-203" style="rounded=0;orthogonalLoop=1;jettySize=auto;html=1;endArrow=none;endFill=0;entryX=0.5;entryY=0;entryDx=0;entryDy=0;exitX=0.5;exitY=1;exitDx=0;exitDy=0;" edge="1" parent="1" source="sBAMjuHIIU13v0jw5Ff4-147" target="z8i-_g9vCmL76RbzS4UA-1">
          <mxGeometry relative="1" as="geometry" />
        </mxCell>
        <mxCell id="sBAMjuHIIU13v0jw5Ff4-147" value="A&lt;sub&gt;3,1&lt;/sub&gt;" style="ellipse;whiteSpace=wrap;html=1;aspect=fixed;fillColor=#60a917;fontColor=#ffffff;strokeColor=#2D7600;fontSize=20;" vertex="1" parent="1">
          <mxGeometry x="2065" y="-35" width="80" height="80" as="geometry" />
        </mxCell>
        <mxCell id="sBAMjuHIIU13v0jw5Ff4-216" style="rounded=0;orthogonalLoop=1;jettySize=auto;html=1;entryX=0.5;entryY=0;entryDx=0;entryDy=0;endArrow=none;endFill=0;exitX=0.5;exitY=1;exitDx=0;exitDy=0;" edge="1" parent="1" source="sBAMjuHIIU13v0jw5Ff4-148" target="sBAMjuHIIU13v0jw5Ff4-5">
          <mxGeometry relative="1" as="geometry" />
        </mxCell>
        <mxCell id="sBAMjuHIIU13v0jw5Ff4-217" style="rounded=0;orthogonalLoop=1;jettySize=auto;html=1;entryX=0.5;entryY=0;entryDx=0;entryDy=0;endArrow=none;endFill=0;exitX=0.5;exitY=1;exitDx=0;exitDy=0;" edge="1" parent="1" source="sBAMjuHIIU13v0jw5Ff4-148" target="sBAMjuHIIU13v0jw5Ff4-65">
          <mxGeometry relative="1" as="geometry" />
        </mxCell>
        <mxCell id="sBAMjuHIIU13v0jw5Ff4-218" style="rounded=0;orthogonalLoop=1;jettySize=auto;html=1;entryX=0.5;entryY=0;entryDx=0;entryDy=0;endArrow=none;endFill=0;exitX=0.5;exitY=1;exitDx=0;exitDy=0;" edge="1" parent="1" source="sBAMjuHIIU13v0jw5Ff4-148" target="sBAMjuHIIU13v0jw5Ff4-82">
          <mxGeometry relative="1" as="geometry" />
        </mxCell>
        <mxCell id="sBAMjuHIIU13v0jw5Ff4-219" style="rounded=0;orthogonalLoop=1;jettySize=auto;html=1;entryX=0.5;entryY=0;entryDx=0;entryDy=0;endArrow=none;endFill=0;exitX=0.5;exitY=1;exitDx=0;exitDy=0;" edge="1" parent="1" source="sBAMjuHIIU13v0jw5Ff4-148" target="sBAMjuHIIU13v0jw5Ff4-99">
          <mxGeometry relative="1" as="geometry" />
        </mxCell>
        <mxCell id="sBAMjuHIIU13v0jw5Ff4-220" style="rounded=0;orthogonalLoop=1;jettySize=auto;html=1;entryX=0.5;entryY=0;entryDx=0;entryDy=0;endArrow=none;endFill=0;exitX=0.5;exitY=1;exitDx=0;exitDy=0;" edge="1" parent="1" source="sBAMjuHIIU13v0jw5Ff4-148" target="sBAMjuHIIU13v0jw5Ff4-116">
          <mxGeometry relative="1" as="geometry" />
        </mxCell>
        <mxCell id="sBAMjuHIIU13v0jw5Ff4-221" style="rounded=0;orthogonalLoop=1;jettySize=auto;html=1;entryX=0.5;entryY=0;entryDx=0;entryDy=0;endArrow=none;endFill=0;exitX=0.5;exitY=1;exitDx=0;exitDy=0;" edge="1" parent="1" source="sBAMjuHIIU13v0jw5Ff4-148" target="sBAMjuHIIU13v0jw5Ff4-133">
          <mxGeometry relative="1" as="geometry" />
        </mxCell>
        <mxCell id="sBAMjuHIIU13v0jw5Ff4-148" value="A&lt;sub&gt;3,2&lt;/sub&gt;" style="ellipse;whiteSpace=wrap;html=1;aspect=fixed;fillColor=#60a917;fontColor=#ffffff;strokeColor=#2D7600;fontSize=20;" vertex="1" parent="1">
          <mxGeometry x="2190" y="-35" width="80" height="80" as="geometry" />
        </mxCell>
        <mxCell id="sBAMjuHIIU13v0jw5Ff4-222" style="rounded=0;orthogonalLoop=1;jettySize=auto;html=1;entryX=0.5;entryY=0;entryDx=0;entryDy=0;endArrow=none;endFill=0;exitX=0.5;exitY=1;exitDx=0;exitDy=0;" edge="1" parent="1" source="sBAMjuHIIU13v0jw5Ff4-149" target="sBAMjuHIIU13v0jw5Ff4-138">
          <mxGeometry relative="1" as="geometry" />
        </mxCell>
        <mxCell id="sBAMjuHIIU13v0jw5Ff4-223" style="rounded=0;orthogonalLoop=1;jettySize=auto;html=1;entryX=0.5;entryY=0;entryDx=0;entryDy=0;endArrow=none;endFill=0;exitX=0.5;exitY=1;exitDx=0;exitDy=0;" edge="1" parent="1" source="sBAMjuHIIU13v0jw5Ff4-149" target="sBAMjuHIIU13v0jw5Ff4-121">
          <mxGeometry relative="1" as="geometry" />
        </mxCell>
        <mxCell id="sBAMjuHIIU13v0jw5Ff4-224" style="rounded=0;orthogonalLoop=1;jettySize=auto;html=1;entryX=0.5;entryY=0;entryDx=0;entryDy=0;endArrow=none;endFill=0;exitX=0.5;exitY=1;exitDx=0;exitDy=0;" edge="1" parent="1" source="sBAMjuHIIU13v0jw5Ff4-149" target="sBAMjuHIIU13v0jw5Ff4-104">
          <mxGeometry relative="1" as="geometry" />
        </mxCell>
        <mxCell id="sBAMjuHIIU13v0jw5Ff4-225" style="rounded=0;orthogonalLoop=1;jettySize=auto;html=1;entryX=0.5;entryY=0;entryDx=0;entryDy=0;endArrow=none;endFill=0;exitX=0.5;exitY=1;exitDx=0;exitDy=0;" edge="1" parent="1" source="sBAMjuHIIU13v0jw5Ff4-149" target="sBAMjuHIIU13v0jw5Ff4-87">
          <mxGeometry relative="1" as="geometry" />
        </mxCell>
        <mxCell id="sBAMjuHIIU13v0jw5Ff4-226" style="rounded=0;orthogonalLoop=1;jettySize=auto;html=1;entryX=0.5;entryY=0;entryDx=0;entryDy=0;endArrow=none;endFill=0;exitX=0.5;exitY=1;exitDx=0;exitDy=0;" edge="1" parent="1" source="sBAMjuHIIU13v0jw5Ff4-149" target="sBAMjuHIIU13v0jw5Ff4-70">
          <mxGeometry relative="1" as="geometry" />
        </mxCell>
        <mxCell id="sBAMjuHIIU13v0jw5Ff4-227" style="rounded=0;orthogonalLoop=1;jettySize=auto;html=1;entryX=0.5;entryY=0;entryDx=0;entryDy=0;endArrow=none;endFill=0;exitX=0.5;exitY=1;exitDx=0;exitDy=0;" edge="1" parent="1" source="sBAMjuHIIU13v0jw5Ff4-149" target="sBAMjuHIIU13v0jw5Ff4-8">
          <mxGeometry relative="1" as="geometry" />
        </mxCell>
        <mxCell id="sBAMjuHIIU13v0jw5Ff4-149" value="A&lt;sub&gt;3,3&lt;/sub&gt;" style="ellipse;whiteSpace=wrap;html=1;aspect=fixed;fillColor=#60a917;fontColor=#ffffff;strokeColor=#2D7600;fontSize=20;" vertex="1" parent="1">
          <mxGeometry x="2315" y="-35" width="80" height="80" as="geometry" />
        </mxCell>
        <mxCell id="sBAMjuHIIU13v0jw5Ff4-150" value="A&lt;sub&gt;3&lt;/sub&gt;" style="text;html=1;whiteSpace=wrap;strokeColor=none;fillColor=none;align=center;verticalAlign=middle;rounded=0;fontSize=20;" vertex="1" parent="1">
          <mxGeometry x="2030" y="-55" width="60" height="30" as="geometry" />
        </mxCell>
        <mxCell id="sBAMjuHIIU13v0jw5Ff4-241" value="&lt;span&gt;H&lt;/span&gt;&lt;sub&gt;3,1&lt;/sub&gt;" style="ellipse;whiteSpace=wrap;html=1;aspect=fixed;fillColor=light-dark(#60A917,#3333FF);fontColor=#ffffff;strokeColor=#2D7600;fontSize=20;" vertex="1" parent="1">
          <mxGeometry x="1070" y="780" width="80" height="80" as="geometry" />
        </mxCell>
        <mxCell id="sBAMjuHIIU13v0jw5Ff4-242" value="H&lt;sub&gt;3,2&lt;/sub&gt;" style="ellipse;whiteSpace=wrap;html=1;aspect=fixed;fillColor=light-dark(#60A917,#3333FF);fontColor=#ffffff;strokeColor=#2D7600;fontSize=20;" vertex="1" parent="1">
          <mxGeometry x="1210" y="780" width="80" height="80" as="geometry" />
        </mxCell>
        <mxCell id="sBAMjuHIIU13v0jw5Ff4-243" value="H&lt;sub&gt;3,3&lt;/sub&gt;" style="ellipse;whiteSpace=wrap;html=1;aspect=fixed;fillColor=light-dark(#60A917,#3333FF);fontColor=#ffffff;strokeColor=#2D7600;fontSize=20;" vertex="1" parent="1">
          <mxGeometry x="1350" y="780" width="80" height="80" as="geometry" />
        </mxCell>
        <mxCell id="sBAMjuHIIU13v0jw5Ff4-244" value="&lt;span&gt;H&lt;/span&gt;&lt;sub&gt;4,1&lt;/sub&gt;" style="ellipse;whiteSpace=wrap;html=1;aspect=fixed;fillColor=light-dark(#60A917,#3333FF);fontColor=#ffffff;strokeColor=#2D7600;fontSize=20;" vertex="1" parent="1">
          <mxGeometry x="1490" y="780" width="80" height="80" as="geometry" />
        </mxCell>
        <mxCell id="sBAMjuHIIU13v0jw5Ff4-245" value="H&lt;sub&gt;4,2&lt;/sub&gt;" style="ellipse;whiteSpace=wrap;html=1;aspect=fixed;fillColor=light-dark(#60A917,#3333FF);fontColor=#ffffff;strokeColor=#2D7600;fontSize=20;" vertex="1" parent="1">
          <mxGeometry x="1640" y="780" width="80" height="80" as="geometry" />
        </mxCell>
        <mxCell id="sBAMjuHIIU13v0jw5Ff4-246" value="H&lt;sub&gt;4,3&lt;/sub&gt;" style="ellipse;whiteSpace=wrap;html=1;aspect=fixed;fillColor=light-dark(#60A917,#3333FF);fontColor=#ffffff;strokeColor=#2D7600;fontSize=20;" vertex="1" parent="1">
          <mxGeometry x="1790" y="780" width="80" height="80" as="geometry" />
        </mxCell>
        <mxCell id="sBAMjuHIIU13v0jw5Ff4-247" value="&lt;span&gt;H&lt;/span&gt;&lt;sub&gt;5,1&lt;/sub&gt;" style="ellipse;whiteSpace=wrap;html=1;aspect=fixed;fillColor=light-dark(#60A917,#3333FF);fontColor=#ffffff;strokeColor=#2D7600;fontSize=20;" vertex="1" parent="1">
          <mxGeometry x="1940" y="780" width="80" height="80" as="geometry" />
        </mxCell>
        <mxCell id="sBAMjuHIIU13v0jw5Ff4-248" value="H&lt;sub&gt;5,2&lt;/sub&gt;" style="ellipse;whiteSpace=wrap;html=1;aspect=fixed;fillColor=light-dark(#60A917,#3333FF);fontColor=#ffffff;strokeColor=#2D7600;fontSize=20;" vertex="1" parent="1">
          <mxGeometry x="2080" y="780" width="80" height="80" as="geometry" />
        </mxCell>
        <mxCell id="sBAMjuHIIU13v0jw5Ff4-249" value="H&lt;sub&gt;5,3&lt;/sub&gt;" style="ellipse;whiteSpace=wrap;html=1;aspect=fixed;fillColor=light-dark(#60A917,#3333FF);fontColor=#ffffff;strokeColor=#2D7600;fontSize=20;" vertex="1" parent="1">
          <mxGeometry x="2220" y="780" width="80" height="80" as="geometry" />
        </mxCell>
        <mxCell id="sBAMjuHIIU13v0jw5Ff4-250" value="&lt;span&gt;H&lt;/span&gt;&lt;sub&gt;6,1&lt;/sub&gt;" style="ellipse;whiteSpace=wrap;html=1;aspect=fixed;fillColor=light-dark(#60A917,#3333FF);fontColor=#ffffff;strokeColor=#2D7600;fontSize=20;" vertex="1" parent="1">
          <mxGeometry x="2360" y="780" width="80" height="80" as="geometry" />
        </mxCell>
        <mxCell id="sBAMjuHIIU13v0jw5Ff4-251" value="H&lt;sub&gt;6,2&lt;/sub&gt;" style="ellipse;whiteSpace=wrap;html=1;aspect=fixed;fillColor=light-dark(#60A917,#3333FF);fontColor=#ffffff;strokeColor=#2D7600;fontSize=20;" vertex="1" parent="1">
          <mxGeometry x="2510" y="780" width="80" height="80" as="geometry" />
        </mxCell>
        <mxCell id="sBAMjuHIIU13v0jw5Ff4-252" value="H&lt;sub&gt;6,3&lt;/sub&gt;" style="ellipse;whiteSpace=wrap;html=1;aspect=fixed;fillColor=light-dark(#60A917,#3333FF);fontColor=#ffffff;strokeColor=#2D7600;fontSize=20;" vertex="1" parent="1">
          <mxGeometry x="2660" y="780" width="80" height="80" as="geometry" />
        </mxCell>
      </root>
    </mxGraphModel>
  </diagram>
</mxfile>
